<?xml version="1.0" encoding="UTF-8" standalone="no"?>
<!DOCTYPE svg PUBLIC "-//W3C//DTD SVG 1.1//EN" "http://www.w3.org/Graphics/SVG/1.1/DTD/svg11.dtd">
<svg xmlns="http://www.w3.org/2000/svg" version="1.1" viewBox="0.00 0.00 1024.00 1024.00">
<g stroke-width="2.00" fill="none" stroke-linecap="butt">
<path stroke="#e89d93" vector-effect="non-scaling-stroke" d="
  M 223.56 575.18
  Q 223.85 575.66 223.56 576.27
  Q 219.81 583.99 212.47 590.63
  C 206.10 596.40 199.96 602.58 195.57 610.25
  Q 187.40 624.55 188.55 642.79
  Q 189.35 655.58 196.49 668.30
  Q 199.04 672.85 201.11 674.39
  Q 201.64 674.78 203.67 675.41"
/>
<path stroke="#6e858f" vector-effect="non-scaling-stroke" d="
  M 203.67 675.41
  Q 198.82 680.44 194.16 685.17
  C 189.98 689.43 191.95 695.17 198.33 695.03
  Q 205.85 694.86 213.87 694.42
  Q 215.37 694.34 214.60 695.62
  Q 212.98 698.34 210.95 700.92
  Q 195.40 720.74 179.93 741.30
  C 176.61 745.72 179.30 752.28 185.14 752.14
  Q 196.46 751.86 208.02 751.73
  Q 209.29 751.72 208.72 752.85
  Q 207.29 755.69 204.84 759.09
  Q 192.32 776.50 181.12 793.39
  C 177.64 798.64 173.71 803.96 169.99 809.26
  Q 166.84 813.74 168.32 818.04
  C 170.20 823.53 174.24 823.44 178.96 823.42
  Q 213.06 823.28 241.54 823.35
  Q 242.57 823.35 242.58 824.38
  Q 242.75 836.63 242.60 850.59
  C 242.53 856.66 244.73 862.25 250.93 864.15
  C 259.17 866.68 267.39 860.68 267.46 852.00
  Q 267.58 837.75 267.39 823.71
  A 0.34 0.34 0.0 0 1 267.73 823.37
  L 317.79 823.29
  A 0.46 0.45 85.6 0 1 318.24 823.68
  Q 318.74 826.84 320.76 829.15
  C 322.69 831.35 327.00 831.00 329.75 831.01
  Q 342.03 831.06 354.10 830.83
  A 0.37 0.37 0.0 0 1 354.47 831.18
  Q 354.94 840.57 354.66 849.76
  C 354.46 856.52 356.33 863.15 363.86 863.73
  C 370.50 864.23 374.98 859.17 375.01 852.73
  Q 375.05 842.06 375.08 831.13
  A 0.29 0.29 0.0 0 1 375.37 830.84
  Q 390.27 831.05 405.26 830.97
  Q 409.76 830.95 412.19 827.84"
/>
<path stroke="#e8edee" vector-effect="non-scaling-stroke" d="
  M 412.19 827.84
  Q 422.30 825.79 429.72 820.26"
/>
<path stroke="#6e858f" vector-effect="non-scaling-stroke" d="
  M 429.72 820.26
  Q 431.93 822.81 437.25 822.80
  Q 472.50 822.70 507.65 822.85
  A 0.61 0.60 89.5 0 1 508.25 823.45
  Q 508.37 836.77 508.15 849.98
  C 507.83 870.45 535.82 869.06 535.62 850.54
  Q 535.50 839.21 535.63 823.44
  Q 535.63 822.80 536.27 822.80
  Q 572.10 822.76 606.48 822.77
  Q 616.64 822.77 616.93 812.71"
/>
<path stroke="#e8edee" vector-effect="non-scaling-stroke" d="
  M 616.93 812.71
  Q 618.49 814.69 620.58 813.76"
/>
<path stroke="#6e858f" vector-effect="non-scaling-stroke" d="
  M 620.58 813.76
  C 619.18 821.29 623.04 825.18 629.96 825.03
  Q 650.12 824.60 667.18 824.74
  A 0.62 0.62 0.0 0 1 667.79 825.36
  Q 667.79 839.13 667.85 852.33
  C 667.87 857.27 670.49 862.54 675.66 863.57
  C 681.47 864.73 687.04 860.85 688.27 855.37
  Q 688.81 852.97 688.74 845.08
  Q 688.64 835.16 688.93 825.48
  Q 688.94 824.98 689.44 824.98
  Q 707.19 824.81 726.25 824.79
  Q 732.97 824.79 735.08 818.65"
/>
<path stroke="#e8edee" vector-effect="non-scaling-stroke" d="
  M 735.08 818.65
  Q 742.53 818.24 745.44 814.64"
/>
<path stroke="#6e858f" vector-effect="non-scaling-stroke" d="
  M 745.44 814.64
  Q 746.58 821.21 749.32 822.69
  Q 751.36 823.80 753.62 823.76
  Q 780.69 823.33 809.03 823.64
  A 0.49 0.49 0.0 0 1 809.52 824.13
  Q 809.54 838.15 809.37 851.51
  C 809.27 859.28 814.39 865.68 822.72 863.80
  C 828.95 862.40 831.71 857.45 831.70 851.20
  Q 831.68 837.89 831.71 824.45
  Q 831.72 823.72 832.45 823.71
  Q 861.89 823.50 887.69 823.45
  Q 894.22 823.44 895.86 817.13
  C 896.62 814.17 894.39 810.64 892.71 808.24
  Q 889.02 802.97 885.47 797.75
  Q 870.62 775.92 855.34 752.90
  A 0.44 0.44 0.0 0 1 855.72 752.22
  Q 866.39 752.58 876.49 752.45
  Q 881.42 752.39 882.89 747.82
  Q 883.57 745.69 882.42 743.69
  C 879.93 739.36 876.64 735.82 873.80 731.77
  Q 862.17 715.17 852.58 702.34
  Q 850.70 699.82 849.39 697.29
  Q 849.12 696.78 849.70 696.79
  Q 855.05 696.92 860.09 697.25
  Q 864.91 697.57 866.67 696.05
  Q 871.36 692.01 867.39 686.98
  Q 847.36 661.54 829.30 633.48
  C 827.07 630.00 825.59 628.15 821.45 627.72"
/>
<path stroke="#e89d93" vector-effect="non-scaling-stroke" d="
  M 821.45 627.72
  Q 825.10 610.69 818.41 595.02
  C 814.09 584.89 803.77 580.27 795.55 589.85"
/>
<path stroke="#6e858f" vector-effect="non-scaling-stroke" d="
  M 795.55 589.85
  Q 789.61 593.15 787.16 598.47
  Q 785.35 602.41 783.67 606.33
  Q 781.29 611.87 775.69 612.52
  C 767.55 613.47 764.47 607.46 765.30 600.50
  C 765.80 596.37 766.81 592.34 767.00 588.26
  Q 767.52 577.05 763.60 565.52
  Q 763.42 565.00 763.87 564.67
  Q 785.43 548.60 794.84 523.60
  C 796.38 519.49 797.29 515.11 798.11 510.81
  A 0.86 0.86 0.0 0 1 798.86 510.12
  Q 813.80 508.56 825.95 504.62
  C 865.04 491.95 892.74 458.19 898.27 417.04
  C 902.84 383.03 888.57 348.72 863.54 325.65
  Q 837.50 301.65 801.20 298.65
  Q 800.59 298.60 800.50 297.99
  C 796.34 270.74 783.30 244.94 765.08 223.30
  C 744.72 199.12 717.36 181.01 686.67 173.14
  Q 636.99 160.40 589.79 179.95
  Q 547.90 197.31 523.41 235.82
  Q 523.06 236.36 522.42 236.22
  C 518.07 235.25 513.59 234.34 509.15 233.78
  Q 494.66 231.94 478.87 234.17
  C 438.20 239.94 406.31 266.61 391.32 304.70
  Q 391.14 305.16 390.66 305.02
  Q 357.76 295.68 327.13 304.07
  Q 271.77 319.22 250.03 373.69
  Q 249.84 374.15 249.35 374.06
  Q 214.40 368.03 182.42 382.67
  C 150.37 397.35 125.24 430.91 122.67 466.53
  Q 120.27 499.82 135.45 526.37
  Q 151.33 554.16 180.42 568.36
  Q 200.63 578.22 223.56 575.18"
/>
<path stroke="#854746" vector-effect="non-scaling-stroke" d="
  M 795.55 589.85
  Q 795.44 595.16 796.58 600.66
  Q 798.00 607.53 797.99 609.62
  C 797.95 616.35 795.68 623.09 791.01 627.94
  Q 779.26 640.16 761.15 636.49
  C 750.85 634.40 739.76 625.83 740.78 614.25
  C 741.27 608.81 743.22 603.47 743.87 598.04
  Q 746.30 577.79 737.72 559.31
  Q 736.38 556.44 731.35 548.39"
/>
<path stroke="#325467" vector-effect="non-scaling-stroke" d="
  M 731.35 548.39
  C 738.06 542.57 743.00 534.20 747.07 526.37
  C 749.75 521.22 753.04 518.93 758.69 517.87
  Q 775.90 514.64 790.03 509.68
  Q 803.22 505.05 815.64 496.78
  Q 836.71 482.76 846.56 460.96
  C 851.55 449.92 852.73 439.04 852.51 427.11
  Q 852.26 413.45 846.43 400.06
  Q 835.06 373.98 809.02 359.99
  Q 802.66 356.58 796.62 354.83
  Q 761.91 344.80 732.06 360.10
  C 719.40 366.60 709.04 376.66 700.66 387.81
  Q 699.57 389.27 697.90 389.42
  Q 691.35 389.99 682.35 389.95
  Q 678.56 389.94 675.51 388.11
  C 659.10 378.27 637.66 376.87 619.70 382.51
  C 602.08 388.05 587.70 401.99 579.70 418.27
  A 1.75 1.75 0.0 0 1 578.13 419.25
  L 551.84 419.38
  A 1.16 1.16 0.0 0 1 550.68 418.21
  Q 550.90 399.33 557.94 383.00
  Q 559.96 378.29 563.44 372.51
  C 580.24 344.59 606.76 328.20 639.09 326.13
  C 658.79 324.87 677.37 329.75 693.81 340.88
  Q 699.72 344.88 705.21 349.39
  A 0.63 0.63 0.0 0 0 706.24 348.94
  Q 707.81 321.05 689.12 300.48"
/>
<path stroke="#8597a1" vector-effect="non-scaling-stroke" d="
  M 689.12 300.48
  C 702.91 296.22 710.64 284.66 708.71 270.61
  C 706.76 256.45 692.60 246.64 678.56 249.49
  Q 673.00 250.62 668.07 254.32
  Q 657.72 262.08 657.88 276.54"
/>
<path stroke="#325467" vector-effect="non-scaling-stroke" d="
  M 657.88 276.54
  L 657.76 277.39
  Q 657.61 278.38 657.31 277.42
  C 657.03 276.51 656.26 275.78 655.32 275.53
  Q 632.89 269.54 612.84 276.18
  Q 587.54 284.55 574.73 308.16
  C 574.00 309.51 572.99 310.09 571.45 310.17
  Q 561.97 310.70 552.60 310.56
  Q 552.01 310.55 551.50 310.23
  C 547.78 307.89 544.58 304.95 540.84 302.51
  C 511.09 283.17 471.98 285.28 445.09 308.39
  C 429.84 321.49 419.13 340.58 416.78 360.52
  A 1.48 1.48 0.0 0 1 414.99 361.79
  C 391.87 356.64 368.02 360.22 348.92 374.41
  Q 322.95 393.70 316.89 425.75
  Q 316.27 429.05 315.75 432.21
  A 2.49 2.49 0.0 0 1 313.70 434.26
  Q 302.86 436.04 292.09 437.18
  Q 287.81 437.63 284.35 436.55
  C 280.39 435.32 277.00 432.28 273.08 430.51
  Q 249.71 419.95 224.12 425.42
  Q 198.47 430.89 182.02 453.02
  C 161.40 480.75 166.30 521.88 190.02 545.50
  C 191.93 547.39 195.86 551.21 198.42 551.19
  A 0.67 0.66 -9.7 0 0 199.05 550.31
  Q 197.94 547.02 197.13 543.57
  C 194.94 534.14 197.69 524.85 204.21 517.68
  C 210.09 511.23 219.66 509.08 228.01 510.16
  Q 240.12 511.74 245.11 522.11
  A 2.09 2.08 -20.8 0 0 247.57 523.21
  Q 251.10 522.19 253.04 519.21
  C 257.30 512.66 255.46 504.70 251.00 498.67
  C 245.70 491.51 238.55 483.48 241.42 473.68
  C 243.18 467.71 247.67 463.11 253.98 462.39
  Q 257.01 462.05 260.34 462.25"
/>
<path stroke="#854746" vector-effect="non-scaling-stroke" d="
  M 260.34 462.25
  C 259.27 467.17 259.61 472.70 263.20 475.80
  Q 268.64 480.48 273.75 485.51
  Q 283.52 495.12 288.98 507.50"
/>
<path stroke="#8597a1" vector-effect="non-scaling-stroke" d="
  M 288.98 507.50
  Q 291.70 513.99 293.01 520.74
  C 296.47 538.63 288.69 555.53 274.56 566.62
  Q 268.01 571.76 262.27 574.06
  A 0.75 0.74 80.0 0 0 261.80 574.74
  L 261.74 577.37"
/>
<path stroke="#854746" vector-effect="non-scaling-stroke" d="
  M 261.74 577.37
  L 255.25 593.82
  A 0.60 0.60 0.0 0 0 255.79 594.64
  Q 259.00 594.70 260.89 597.10
  Q 266.39 604.07 272.17 612.02"
/>
<path stroke="#8597a1" vector-effect="non-scaling-stroke" d="
  M 272.17 612.02
  Q 274.45 615.86 276.10 618.16
  Q 283.09 627.90 294.59 643.15
  Q 299.26 649.34 293.19 654.22
  Q 291.43 655.65 289.16 655.19
  Q 287.64 654.89 288.62 656.08
  Q 300.55 670.47 314.13 684.14
  Q 316.49 686.52 317.32 688.94
  C 318.24 691.61 315.18 694.15 312.95 694.62
  Q 311.08 695.00 307.96 694.91
  Q 300.48 694.68 294.33 694.52
  A 0.18 0.17 -17.4 0 0 294.18 694.80
  Q 311.92 718.38 328.61 739.67
  Q 333.90 746.43 327.07 751.06
  C 326.11 751.70 324.87 751.74 323.77 751.75
  Q 312.13 751.90 298.42 751.56
  A 0.33 0.33 0.0 0 0 298.14 752.07
  L 330.71 799.14
  Q 331.27 799.95 331.76 799.09
  L 340.86 783.07
  Q 341.36 782.19 340.35 782.18
  Q 337.77 782.17 335.19 782.32
  C 331.58 782.53 327.39 779.86 327.96 775.71
  Q 328.32 773.13 329.79 771.19
  C 334.04 765.60 338.45 760.04 342.24 754.04
  Q 350.92 740.31 360.90 724.03
  C 364.54 718.09 369.77 718.24 373.00 724.52
  Q 375.54 729.48 378.75 734.50"
/>
<path stroke="#854746" vector-effect="non-scaling-stroke" d="
  M 378.75 734.50
  L 387.32 749.11"
/>
<path stroke="#8597a1" vector-effect="non-scaling-stroke" d="
  M 387.32 749.11
  Q 393.14 758.28 401.48 770.28
  Q 402.71 772.05 403.66 774.58
  C 405.16 778.58 401.79 782.30 397.80 782.30
  Q 393.46 782.29 389.36 782.14
  A 0.36 0.35 -13.4 0 0 389.03 782.67
  Q 400.04 801.91 410.43 819.81
  Q 413.25 824.68 412.19 827.84"
/>
<path stroke="#854746" vector-effect="non-scaling-stroke" d="
  M 203.67 675.41
  L 220.66 656.45
  A 0.49 0.49 0.0 0 0 220.41 655.65
  C 213.76 654.15 211.83 647.71 215.83 642.46
  Q 225.17 630.21 234.36 617.67
  Q 235.88 615.61 237.09 613.50
  A 0.82 0.81 -59.5 0 0 236.81 612.40
  C 232.03 609.46 229.35 602.25 234.70 598.51
  C 241.48 593.76 248.07 583.94 248.78 574.95
  Q 250.43 554.07 235.53 538.75
  C 231.35 534.45 225.28 533.13 220.69 537.77
  C 218.67 539.82 218.52 542.38 219.37 545.02
  Q 221.40 551.36 223.02 557.00
  Q 224.90 563.54 223.56 575.18"
/>
<path stroke="#8597a1" vector-effect="non-scaling-stroke" d="
  M 652.27 619.90
  L 652.61 613.38
  A 1.08 1.06 -6.5 0 1 653.39 612.41
  C 658.23 611.04 663.14 607.30 667.02 604.17
  Q 671.34 600.69 674.70 596.64
  Q 691.26 576.67 683.59 550.30"
/>
<path stroke="#ffafa5" vector-effect="non-scaling-stroke" d="
  M 683.59 550.30
  Q 683.99 549.59 684.93 550.86
  Q 685.38 551.47 685.88 551.80
  C 702.61 562.90 711.03 583.73 701.75 602.93
  C 696.59 613.61 693.31 624.19 695.96 635.35
  C 700.29 653.60 715.46 664.27 730.66 673.63
  C 739.05 678.79 746.99 686.33 751.95 695.09
  C 760.17 709.60 759.90 728.27 754.05 743.47
  Q 752.47 747.58 749.83 753.13
  C 748.90 755.11 749.47 759.70 752.50 759.22
  Q 757.99 758.35 762.67 752.99"
/>
<path stroke="#8597a1" vector-effect="non-scaling-stroke" d="
  M 762.67 752.99
  L 786.78 752.39
  A 0.39 0.38 -74.0 0 1 787.11 752.99
  L 745.44 814.64"
/>
<path stroke="#8597a1" vector-effect="non-scaling-stroke" d="
  M 735.08 818.65
  Q 735.82 815.09 734.49 813.02
  Q 720.97 791.94 707.06 771.62
  A 0.50 0.50 0.0 0 1 707.48 770.84
  Q 714.32 770.96 720.76 771.18
  C 725.78 771.36 729.08 766.35 725.56 762.07
  Q 722.05 757.81 717.31 752.84
  Q 709.25 744.39 701.70 734.86
  Q 700.98 733.95 702.12 734.17
  Q 705.16 734.74 708.51 734.80
  C 713.17 734.88 717.96 729.87 714.57 725.40
  Q 697.19 702.52 683.52 679.98
  C 680.31 674.67 674.85 675.93 671.87 680.57
  Q 662.85 694.65 653.13 709.00
  Q 648.35 716.06 642.88 722.51
  C 640.24 725.63 638.15 729.22 641.40 732.83
  C 643.86 735.56 648.79 735.02 652.21 734.65
  Q 653.70 734.49 652.77 735.67
  Q 641.69 749.69 630.48 761.45
  C 626.67 765.43 628.85 771.26 634.33 771.22
  Q 641.10 771.17 648.58 770.82
  A 0.40 0.40 0.0 0 1 648.93 771.44
  L 620.58 813.76"
/>
<path stroke="#8597a1" vector-effect="non-scaling-stroke" d="
  M 616.93 812.71
  Q 615.98 809.57 614.43 807.32
  Q 592.29 775.14 570.07 743.15
  Q 567.56 739.52 565.32 735.76
  Q 564.97 735.16 565.66 735.17
  Q 581.71 735.37 595.69 735.55
  Q 598.16 735.59 599.75 734.46
  C 602.45 732.55 604.13 728.81 602.23 725.71
  Q 601.21 724.04 599.88 722.32
  Q 579.28 695.53 558.94 668.33
  A 0.47 0.47 0.0 0 1 559.34 667.58
  Q 566.00 667.92 572.78 668.00
  Q 577.99 668.06 580.26 663.59
  C 581.80 660.56 579.97 657.34 578.11 654.81
  Q 552.79 620.44 528.95 584.43
  C 524.73 578.06 518.24 578.92 514.39 584.80
  Q 490.45 621.44 465.73 655.21
  C 463.71 657.98 462.85 661.20 464.67 664.25
  C 466.52 667.38 469.24 668.08 472.75 668.00
  Q 478.47 667.87 484.32 667.70
  A 0.33 0.33 0.0 0 1 484.60 668.21
  Q 482.01 671.97 479.30 675.56
  Q 465.48 693.90 451.69 712.62
  C 448.99 716.28 445.38 720.44 442.39 724.55
  C 439.21 728.94 441.46 735.59 447.32 735.56
  Q 462.83 735.49 477.87 735.31
  A 0.37 0.37 0.0 0 1 478.20 735.86
  Q 477.17 737.73 476.06 739.36
  C 459.49 763.72 445.90 784.09 429.42 807.97
  Q 425.42 813.76 429.72 820.26"
/>
<path stroke="#854746" vector-effect="non-scaling-stroke" d="
  M 821.45 627.72
  Q 816.94 628.32 814.49 632.01
  Q 796.28 659.44 776.16 685.64
  Q 774.05 688.40 773.64 690.42
  C 772.59 695.68 777.47 697.93 782.07 697.72
  Q 787.07 697.50 791.72 697.01
  A 0.87 0.87 0.0 0 1 792.54 698.36
  Q 790.96 700.74 789.30 703.05
  C 780.46 715.31 771.77 728.19 761.88 740.34
  Q 759.11 743.74 758.88 746.36
  Q 758.51 750.45 762.67 752.99"
/>
<path stroke="#ffafa5" vector-effect="non-scaling-stroke" d="
  M 272.17 612.02
  C 272.21 599.40 267.93 588.10 261.74 577.37"
/>
<path stroke="#854746" vector-effect="non-scaling-stroke" d="
  M 354.51 526.66
  Q 357.34 533.87 358.43 538.54
  Q 360.46 547.24 360.11 558.40
  C 359.84 567.03 356.75 575.49 354.01 583.65
  C 347.88 601.90 359.59 618.33 374.70 627.35
  Q 386.46 634.36 400.66 638.85
  A 0.44 0.44 0.0 0 0 401.22 638.35
  C 397.47 619.33 399.85 599.03 410.31 582.50
  C 414.10 576.52 419.93 570.04 425.19 565.53
  C 432.38 559.38 438.68 553.53 442.30 544.48"
/>
<path stroke="#ffafa5" vector-effect="non-scaling-stroke" d="
  M 480.52 539.62
  Q 481.68 540.01 482.32 540.93
  Q 493.00 556.41 492.10 574.58
  C 491.27 591.62 482.40 605.48 466.68 612.77
  Q 460.53 615.62 454.29 618.38
  C 445.98 622.05 438.90 627.98 433.36 635.32
  Q 431.42 637.89 430.13 640.98
  Q 423.84 656.08 427.30 671.40
  Q 428.23 675.52 429.41 679.47
  C 432.74 690.61 428.63 700.76 415.55 701.03
  C 414.19 701.06 412.85 700.79 411.53 700.52
  A 0.57 0.57 0.0 0 0 410.85 700.99
  C 408.93 713.61 406.06 725.44 398.70 736.24
  C 395.03 741.63 392.13 745.62 387.32 749.11"
/>
<path stroke="#ffafa5" vector-effect="non-scaling-stroke" d="
  M 378.75 734.50
  Q 379.19 733.43 379.36 732.16
  Q 379.55 730.76 380.10 729.48
  Q 385.49 716.86 385.58 705.29
  Q 385.76 681.07 366.62 664.59
  Q 360.87 659.63 353.71 655.64
  C 337.05 646.35 318.58 637.09 309.44 619.20
  Q 300.52 601.74 307.22 582.65
  C 309.74 575.47 314.17 568.86 316.00 561.43
  C 320.39 543.59 312.04 524.77 297.90 513.68
  C 295.50 511.80 291.85 509.83 288.98 507.50"
/>
<path stroke="#acbcc5" vector-effect="non-scaling-stroke" d="
  M 689.12 300.48
  Q 684.51 301.27 683.27 301.15
  Q 669.90 299.87 662.28 288.73
  Q 658.51 283.22 657.88 276.54"
/>
<path stroke="#ac6c6b" vector-effect="non-scaling-stroke" d="
  M 731.35 548.39
  Q 727.27 542.05 720.62 534.87
  Q 705.53 518.57 688.37 509.27
  C 684.50 507.18 680.48 504.56 676.78 503.95
  Q 665.11 502.01 661.26 511.75"
/>
<path stroke="#325467" vector-effect="non-scaling-stroke" d="
  M 661.26 511.75
  Q 656.89 506.66 650.24 507.25
  C 641.84 508.01 636.11 517.76 639.06 525.70
  C 643.34 537.22 658.60 545.60 649.41 559.40
  A 1.24 1.24 0.0 0 1 647.33 559.39
  C 645.43 556.47 644.01 553.10 641.88 550.34
  C 635.60 542.26 627.44 537.00 618.79 531.55
  C 611.20 526.78 607.28 519.84 607.03 511.16
  C 606.79 502.59 606.08 495.50 600.15 488.90
  Q 595.08 483.25 588.10 482.51
  C 584.43 482.12 582.22 484.18 579.50 485.17"
/>
<path stroke="#ac6c6b" vector-effect="non-scaling-stroke" d="
  M 579.50 485.17
  Q 575.41 477.64 573.43 474.80
  Q 561.20 457.27 544.54 444.96
  Q 540.65 442.08 539.26 440.80"
/>
<path stroke="#325467" vector-effect="non-scaling-stroke" d="
  M 539.26 440.80
  Q 539.25 435.67 538.24 430.98
  C 534.49 413.39 520.07 400.06 501.91 399.33
  C 484.50 398.63 469.72 407.87 464.09 424.82
  C 459.92 437.39 463.00 449.66 471.01 460.32
  Q 474.52 464.99 477.74 469.79
  C 483.00 477.62 481.87 492.69 469.92 493.94
  Q 468.64 494.07 467.82 493.08
  C 460.46 484.27 452.71 480.42 440.99 482.26
  C 429.06 484.13 420.78 494.46 419.98 506.20
  C 419.09 519.16 430.49 532.16 443.27 533.50"
/>
<path stroke="#ac6c6b" vector-effect="non-scaling-stroke" d="
  M 443.27 533.50
  Q 443.67 539.71 442.30 544.48"
/>
<path stroke="#325467" vector-effect="non-scaling-stroke" d="
  M 442.30 544.48
  Q 433.51 545.06 427.74 546.73
  Q 401.75 554.27 390.95 578.99
  Q 388.77 583.98 387.87 589.95
  A 1.46 1.46 0.0 0 1 386.04 591.14
  C 381.37 589.83 378.78 584.19 378.36 579.70
  C 377.76 573.24 381.13 566.63 382.27 560.27
  Q 384.17 549.75 381.16 539.11
  C 378.31 528.99 369.28 521.38 358.52 525.33
  Q 356.78 525.97 354.51 526.66"
/>
<path stroke="#ac6c6b" vector-effect="non-scaling-stroke" d="
  M 354.51 526.66
  Q 342.40 500.57 320.41 481.83
  Q 313.18 475.67 305.63 470.46
  Q 296.60 464.23 287.62 460.31
  C 278.27 456.23 267.15 452.69 260.34 462.25"
/>
<path stroke="#854746" vector-effect="non-scaling-stroke" d="
  M 579.50 485.17
  Q 584.79 496.37 585.51 506.50
  Q 586.07 514.47 586.43 522.63
  C 586.79 530.79 593.26 538.27 599.67 542.73
  C 606.11 547.21 612.88 551.09 618.57 556.44
  Q 641.63 578.17 638.81 611.78
  C 637.34 629.26 627.15 646.22 615.39 659.92
  C 611.65 664.28 612.86 670.98 619.19 671.83
  C 627.11 672.90 638.69 651.52 641.37 645.76
  C 644.44 639.17 646.93 629.80 649.56 623.30
  Q 650.19 621.75 652.27 619.90"
/>
<path stroke="#ffafa5" vector-effect="non-scaling-stroke" d="
  M 652.27 619.90
  Q 654.29 627.27 656.45 634.87
  Q 661.81 653.76 655.26 671.23
  C 648.86 688.29 633.09 698.84 614.95 694.85
  C 605.93 692.87 598.19 686.40 596.67 677.00
  Q 595.41 669.16 601.70 665.53
  Q 602.31 665.19 601.91 664.61
  C 599.30 660.80 597.35 657.74 599.33 653.12
  Q 601.21 648.72 603.25 644.37
  C 611.50 626.76 609.85 607.15 596.28 592.56
  C 589.21 584.97 580.45 579.44 572.10 573.72
  Q 561.90 566.72 555.07 555.73
  Q 548.46 545.09 549.32 533.05
  C 550.14 521.43 550.95 511.18 545.62 500.63
  C 539.95 489.41 531.47 481.07 520.33 475.75
  Q 517.04 474.18 513.73 472.42"
/>
<path stroke="#854746" vector-effect="non-scaling-stroke" d="
  M 661.26 511.75
  Q 660.56 518.38 663.72 521.50
  Q 669.48 527.21 671.85 529.90
  Q 679.79 538.88 683.59 550.30"
/>
<path stroke="#854746" vector-effect="non-scaling-stroke" d="
  M 539.26 440.80
  Q 525.91 431.73 511.48 426.62
  Q 504.75 424.24 499.41 423.79
  C 494.49 423.38 487.84 426.29 486.25 431.26
  C 484.34 437.18 487.28 440.40 491.71 444.43
  Q 494.62 447.07 497.52 449.73
  Q 508.14 459.48 513.73 472.42"
/>
<path stroke="#8597a1" vector-effect="non-scaling-stroke" d="
  M 513.73 472.42
  C 518.33 486.32 518.96 498.23 512.22 511.70
  C 506.00 524.15 494.03 533.74 481.23 538.72
  Q 480.48 539.02 480.52 539.62"
/>
<path stroke="#854746" vector-effect="non-scaling-stroke" d="
  M 480.52 539.62
  C 480.15 540.23 479.74 541.10 479.67 541.84
  Q 478.18 559.39 468.26 574.26
  Q 464.96 579.20 460.93 581.43
  C 454.10 585.21 448.40 578.07 450.96 571.83
  Q 451.73 569.95 453.58 568.45
  Q 464.24 559.77 466.74 546.81
  Q 470.33 528.21 458.04 510.96
  C 453.84 505.07 446.78 501.74 440.73 507.84
  Q 438.48 510.11 439.43 513.14
  C 441.54 519.81 442.91 526.10 443.27 533.50"
/>
<path stroke="#8597a1" vector-effect="non-scaling-stroke" d="
  M 568.0623 247.9340
  A 10.52 10.32 39.8 0 0 566.5859 233.2713
  A 10.52 10.32 39.8 0 0 551.8977 234.4660
  A 10.52 10.32 39.8 0 0 553.3741 249.1287
  A 10.52 10.32 39.8 0 0 568.0623 247.9340"
/>
<path stroke="#8597a1" vector-effect="non-scaling-stroke" d="
  M 770.2561 314.9475
  A 10.82 10.45 62.5 0 0 774.5293 300.5247
  A 10.82 10.45 62.5 0 0 760.2639 295.7525
  A 10.82 10.45 62.5 0 0 755.9907 310.1753
  A 10.82 10.45 62.5 0 0 770.2561 314.9475"
/>
<path stroke="#8597a1" vector-effect="non-scaling-stroke" d="
  M 294.4480 388.6937
  A 10.75 10.48 45.7 0 0 294.4405 373.6806
  A 10.75 10.48 45.7 0 0 279.4320 373.3063
  A 10.75 10.48 45.7 0 0 279.4395 388.3194
  A 10.75 10.48 45.7 0 0 294.4480 388.6937"
/>
<path stroke="#acbcc5" vector-effect="non-scaling-stroke" d="
  M 482.8219 366.9150
  A 13.04 12.81 61.0 0 0 487.7039 349.2996
  A 13.04 12.81 61.0 0 0 470.1781 344.1050
  A 13.04 12.81 61.0 0 0 465.2961 361.7204
  A 13.04 12.81 61.0 0 0 482.8219 366.9150"
/>
<path stroke="#acbcc5" vector-effect="non-scaling-stroke" d="
  M 408.0342 441.1145
  A 25.05 24.51 59.1 0 0 416.2012 407.0331
  A 25.05 24.51 59.1 0 0 382.3058 398.1255
  A 25.05 24.51 59.1 0 0 374.1388 432.2069
  A 25.05 24.51 59.1 0 0 408.0342 441.1145"
/>
<path stroke="#acbcc5" vector-effect="non-scaling-stroke" d="
  M 804.99 445.24
  A 23.72 23.72 0.0 0 0 781.27 421.52
  A 23.72 23.72 0.0 0 0 757.55 445.24
  A 23.72 23.72 0.0 0 0 781.27 468.96
  A 23.72 23.72 0.0 0 0 804.99 445.24"
/>
<path stroke="#acbcc5" vector-effect="non-scaling-stroke" d="
  M 665.0356 459.4564
  A 13.38 13.19 26.1 0 0 658.8228 441.7250
  A 13.38 13.19 26.1 0 0 641.0044 447.6836
  A 13.38 13.19 26.1 0 0 647.2172 465.4150
  A 13.38 13.19 26.1 0 0 665.0356 459.4564"
/>
</g>
<path fill="#d1dadc" d="
  M 0.00 0.00
  L 1024.00 0.00
  L 1024.00 1024.00
  L 0.00 1024.00
  L 0.00 0.00
  Z
  M 223.56 575.18
  Q 223.85 575.66 223.56 576.27
  Q 219.81 583.99 212.47 590.63
  C 206.10 596.40 199.96 602.58 195.57 610.25
  Q 187.40 624.55 188.55 642.79
  Q 189.35 655.58 196.49 668.30
  Q 199.04 672.85 201.11 674.39
  Q 201.64 674.78 203.67 675.41
  Q 198.82 680.44 194.16 685.17
  C 189.98 689.43 191.95 695.17 198.33 695.03
  Q 205.85 694.86 213.87 694.42
  Q 215.37 694.34 214.60 695.62
  Q 212.98 698.34 210.95 700.92
  Q 195.40 720.74 179.93 741.30
  C 176.61 745.72 179.30 752.28 185.14 752.14
  Q 196.46 751.86 208.02 751.73
  Q 209.29 751.72 208.72 752.85
  Q 207.29 755.69 204.84 759.09
  Q 192.32 776.50 181.12 793.39
  C 177.64 798.64 173.71 803.96 169.99 809.26
  Q 166.84 813.74 168.32 818.04
  C 170.20 823.53 174.24 823.44 178.96 823.42
  Q 213.06 823.28 241.54 823.35
  Q 242.57 823.35 242.58 824.38
  Q 242.75 836.63 242.60 850.59
  C 242.53 856.66 244.73 862.25 250.93 864.15
  C 259.17 866.68 267.39 860.68 267.46 852.00
  Q 267.58 837.75 267.39 823.71
  A 0.34 0.34 0.0 0 1 267.73 823.37
  L 317.79 823.29
  A 0.46 0.45 85.6 0 1 318.24 823.68
  Q 318.74 826.84 320.76 829.15
  C 322.69 831.35 327.00 831.00 329.75 831.01
  Q 342.03 831.06 354.10 830.83
  A 0.37 0.37 0.0 0 1 354.47 831.18
  Q 354.94 840.57 354.66 849.76
  C 354.46 856.52 356.33 863.15 363.86 863.73
  C 370.50 864.23 374.98 859.17 375.01 852.73
  Q 375.05 842.06 375.08 831.13
  A 0.29 0.29 0.0 0 1 375.37 830.84
  Q 390.27 831.05 405.26 830.97
  Q 409.76 830.95 412.19 827.84
  Q 422.30 825.79 429.72 820.26
  Q 431.93 822.81 437.25 822.80
  Q 472.50 822.70 507.65 822.85
  A 0.61 0.60 89.5 0 1 508.25 823.45
  Q 508.37 836.77 508.15 849.98
  C 507.83 870.45 535.82 869.06 535.62 850.54
  Q 535.50 839.21 535.63 823.44
  Q 535.63 822.80 536.27 822.80
  Q 572.10 822.76 606.48 822.77
  Q 616.64 822.77 616.93 812.71
  Q 618.49 814.69 620.58 813.76
  C 619.18 821.29 623.04 825.18 629.96 825.03
  Q 650.12 824.60 667.18 824.74
  A 0.62 0.62 0.0 0 1 667.79 825.36
  Q 667.79 839.13 667.85 852.33
  C 667.87 857.27 670.49 862.54 675.66 863.57
  C 681.47 864.73 687.04 860.85 688.27 855.37
  Q 688.81 852.97 688.74 845.08
  Q 688.64 835.16 688.93 825.48
  Q 688.94 824.98 689.44 824.98
  Q 707.19 824.81 726.25 824.79
  Q 732.97 824.79 735.08 818.65
  Q 742.53 818.24 745.44 814.64
  Q 746.58 821.21 749.32 822.69
  Q 751.36 823.80 753.62 823.76
  Q 780.69 823.33 809.03 823.64
  A 0.49 0.49 0.0 0 1 809.52 824.13
  Q 809.54 838.15 809.37 851.51
  C 809.27 859.28 814.39 865.68 822.72 863.80
  C 828.95 862.40 831.71 857.45 831.70 851.20
  Q 831.68 837.89 831.71 824.45
  Q 831.72 823.72 832.45 823.71
  Q 861.89 823.50 887.69 823.45
  Q 894.22 823.44 895.86 817.13
  C 896.62 814.17 894.39 810.64 892.71 808.24
  Q 889.02 802.97 885.47 797.75
  Q 870.62 775.92 855.34 752.90
  A 0.44 0.44 0.0 0 1 855.72 752.22
  Q 866.39 752.58 876.49 752.45
  Q 881.42 752.39 882.89 747.82
  Q 883.57 745.69 882.42 743.69
  C 879.93 739.36 876.64 735.82 873.80 731.77
  Q 862.17 715.17 852.58 702.34
  Q 850.70 699.82 849.39 697.29
  Q 849.12 696.78 849.70 696.79
  Q 855.05 696.92 860.09 697.25
  Q 864.91 697.57 866.67 696.05
  Q 871.36 692.01 867.39 686.98
  Q 847.36 661.54 829.30 633.48
  C 827.07 630.00 825.59 628.15 821.45 627.72
  Q 825.10 610.69 818.41 595.02
  C 814.09 584.89 803.77 580.27 795.55 589.85
  Q 789.61 593.15 787.16 598.47
  Q 785.35 602.41 783.67 606.33
  Q 781.29 611.87 775.69 612.52
  C 767.55 613.47 764.47 607.46 765.30 600.50
  C 765.80 596.37 766.81 592.34 767.00 588.26
  Q 767.52 577.05 763.60 565.52
  Q 763.42 565.00 763.87 564.67
  Q 785.43 548.60 794.84 523.60
  C 796.38 519.49 797.29 515.11 798.11 510.81
  A 0.86 0.86 0.0 0 1 798.86 510.12
  Q 813.80 508.56 825.95 504.62
  C 865.04 491.95 892.74 458.19 898.27 417.04
  C 902.84 383.03 888.57 348.72 863.54 325.65
  Q 837.50 301.65 801.20 298.65
  Q 800.59 298.60 800.50 297.99
  C 796.34 270.74 783.30 244.94 765.08 223.30
  C 744.72 199.12 717.36 181.01 686.67 173.14
  Q 636.99 160.40 589.79 179.95
  Q 547.90 197.31 523.41 235.82
  Q 523.06 236.36 522.42 236.22
  C 518.07 235.25 513.59 234.34 509.15 233.78
  Q 494.66 231.94 478.87 234.17
  C 438.20 239.94 406.31 266.61 391.32 304.70
  Q 391.14 305.16 390.66 305.02
  Q 357.76 295.68 327.13 304.07
  Q 271.77 319.22 250.03 373.69
  Q 249.84 374.15 249.35 374.06
  Q 214.40 368.03 182.42 382.67
  C 150.37 397.35 125.24 430.91 122.67 466.53
  Q 120.27 499.82 135.45 526.37
  Q 151.33 554.16 180.42 568.36
  Q 200.63 578.22 223.56 575.18
  Z"
/>
<path fill="#0b2f42" d="
  M 795.55 589.85
  Q 795.44 595.16 796.58 600.66
  Q 798.00 607.53 797.99 609.62
  C 797.95 616.35 795.68 623.09 791.01 627.94
  Q 779.26 640.16 761.15 636.49
  C 750.85 634.40 739.76 625.83 740.78 614.25
  C 741.27 608.81 743.22 603.47 743.87 598.04
  Q 746.30 577.79 737.72 559.31
  Q 736.38 556.44 731.35 548.39
  C 738.06 542.57 743.00 534.20 747.07 526.37
  C 749.75 521.22 753.04 518.93 758.69 517.87
  Q 775.90 514.64 790.03 509.68
  Q 803.22 505.05 815.64 496.78
  Q 836.71 482.76 846.56 460.96
  C 851.55 449.92 852.73 439.04 852.51 427.11
  Q 852.26 413.45 846.43 400.06
  Q 835.06 373.98 809.02 359.99
  Q 802.66 356.58 796.62 354.83
  Q 761.91 344.80 732.06 360.10
  C 719.40 366.60 709.04 376.66 700.66 387.81
  Q 699.57 389.27 697.90 389.42
  Q 691.35 389.99 682.35 389.95
  Q 678.56 389.94 675.51 388.11
  C 659.10 378.27 637.66 376.87 619.70 382.51
  C 602.08 388.05 587.70 401.99 579.70 418.27
  A 1.75 1.75 0.0 0 1 578.13 419.25
  L 551.84 419.38
  A 1.16 1.16 0.0 0 1 550.68 418.21
  Q 550.90 399.33 557.94 383.00
  Q 559.96 378.29 563.44 372.51
  C 580.24 344.59 606.76 328.20 639.09 326.13
  C 658.79 324.87 677.37 329.75 693.81 340.88
  Q 699.72 344.88 705.21 349.39
  A 0.63 0.63 0.0 0 0 706.24 348.94
  Q 707.81 321.05 689.12 300.48
  C 702.91 296.22 710.64 284.66 708.71 270.61
  C 706.76 256.45 692.60 246.64 678.56 249.49
  Q 673.00 250.62 668.07 254.32
  Q 657.72 262.08 657.88 276.54
  L 657.76 277.39
  Q 657.61 278.38 657.31 277.42
  C 657.03 276.51 656.26 275.78 655.32 275.53
  Q 632.89 269.54 612.84 276.18
  Q 587.54 284.55 574.73 308.16
  C 574.00 309.51 572.99 310.09 571.45 310.17
  Q 561.97 310.70 552.60 310.56
  Q 552.01 310.55 551.50 310.23
  C 547.78 307.89 544.58 304.95 540.84 302.51
  C 511.09 283.17 471.98 285.28 445.09 308.39
  C 429.84 321.49 419.13 340.58 416.78 360.52
  A 1.48 1.48 0.0 0 1 414.99 361.79
  C 391.87 356.64 368.02 360.22 348.92 374.41
  Q 322.95 393.70 316.89 425.75
  Q 316.27 429.05 315.75 432.21
  A 2.49 2.49 0.0 0 1 313.70 434.26
  Q 302.86 436.04 292.09 437.18
  Q 287.81 437.63 284.35 436.55
  C 280.39 435.32 277.00 432.28 273.08 430.51
  Q 249.71 419.95 224.12 425.42
  Q 198.47 430.89 182.02 453.02
  C 161.40 480.75 166.30 521.88 190.02 545.50
  C 191.93 547.39 195.86 551.21 198.42 551.19
  A 0.67 0.66 -9.7 0 0 199.05 550.31
  Q 197.94 547.02 197.13 543.57
  C 194.94 534.14 197.69 524.85 204.21 517.68
  C 210.09 511.23 219.66 509.08 228.01 510.16
  Q 240.12 511.74 245.11 522.11
  A 2.09 2.08 -20.8 0 0 247.57 523.21
  Q 251.10 522.19 253.04 519.21
  C 257.30 512.66 255.46 504.70 251.00 498.67
  C 245.70 491.51 238.55 483.48 241.42 473.68
  C 243.18 467.71 247.67 463.11 253.98 462.39
  Q 257.01 462.05 260.34 462.25
  C 259.27 467.17 259.61 472.70 263.20 475.80
  Q 268.64 480.48 273.75 485.51
  Q 283.52 495.12 288.98 507.50
  Q 291.70 513.99 293.01 520.74
  C 296.47 538.63 288.69 555.53 274.56 566.62
  Q 268.01 571.76 262.27 574.06
  A 0.75 0.74 80.0 0 0 261.80 574.74
  L 261.74 577.37
  L 255.25 593.82
  A 0.60 0.60 0.0 0 0 255.79 594.64
  Q 259.00 594.70 260.89 597.10
  Q 266.39 604.07 272.17 612.02
  Q 274.45 615.86 276.10 618.16
  Q 283.09 627.90 294.59 643.15
  Q 299.26 649.34 293.19 654.22
  Q 291.43 655.65 289.16 655.19
  Q 287.64 654.89 288.62 656.08
  Q 300.55 670.47 314.13 684.14
  Q 316.49 686.52 317.32 688.94
  C 318.24 691.61 315.18 694.15 312.95 694.62
  Q 311.08 695.00 307.96 694.91
  Q 300.48 694.68 294.33 694.52
  A 0.18 0.17 -17.4 0 0 294.18 694.80
  Q 311.92 718.38 328.61 739.67
  Q 333.90 746.43 327.07 751.06
  C 326.11 751.70 324.87 751.74 323.77 751.75
  Q 312.13 751.90 298.42 751.56
  A 0.33 0.33 0.0 0 0 298.14 752.07
  L 330.71 799.14
  Q 331.27 799.95 331.76 799.09
  L 340.86 783.07
  Q 341.36 782.19 340.35 782.18
  Q 337.77 782.17 335.19 782.32
  C 331.58 782.53 327.39 779.86 327.96 775.71
  Q 328.32 773.13 329.79 771.19
  C 334.04 765.60 338.45 760.04 342.24 754.04
  Q 350.92 740.31 360.90 724.03
  C 364.54 718.09 369.77 718.24 373.00 724.52
  Q 375.54 729.48 378.75 734.50
  L 387.32 749.11
  Q 393.14 758.28 401.48 770.28
  Q 402.71 772.05 403.66 774.58
  C 405.16 778.58 401.79 782.30 397.80 782.30
  Q 393.46 782.29 389.36 782.14
  A 0.36 0.35 -13.4 0 0 389.03 782.67
  Q 400.04 801.91 410.43 819.81
  Q 413.25 824.68 412.19 827.84
  Q 409.76 830.95 405.26 830.97
  Q 390.27 831.05 375.37 830.84
  A 0.29 0.29 0.0 0 0 375.08 831.13
  Q 375.05 842.06 375.01 852.73
  C 374.98 859.17 370.50 864.23 363.86 863.73
  C 356.33 863.15 354.46 856.52 354.66 849.76
  Q 354.94 840.57 354.47 831.18
  A 0.37 0.37 0.0 0 0 354.10 830.83
  Q 342.03 831.06 329.75 831.01
  C 327.00 831.00 322.69 831.35 320.76 829.15
  Q 318.74 826.84 318.24 823.68
  A 0.46 0.45 85.6 0 0 317.79 823.29
  L 267.73 823.37
  A 0.34 0.34 0.0 0 0 267.39 823.71
  Q 267.58 837.75 267.46 852.00
  C 267.39 860.68 259.17 866.68 250.93 864.15
  C 244.73 862.25 242.53 856.66 242.60 850.59
  Q 242.75 836.63 242.58 824.38
  Q 242.57 823.35 241.54 823.35
  Q 213.06 823.28 178.96 823.42
  C 174.24 823.44 170.20 823.53 168.32 818.04
  Q 166.84 813.74 169.99 809.26
  C 173.71 803.96 177.64 798.64 181.12 793.39
  Q 192.32 776.50 204.84 759.09
  Q 207.29 755.69 208.72 752.85
  Q 209.29 751.72 208.02 751.73
  Q 196.46 751.86 185.14 752.14
  C 179.30 752.28 176.61 745.72 179.93 741.30
  Q 195.40 720.74 210.95 700.92
  Q 212.98 698.34 214.60 695.62
  Q 215.37 694.34 213.87 694.42
  Q 205.85 694.86 198.33 695.03
  C 191.95 695.17 189.98 689.43 194.16 685.17
  Q 198.82 680.44 203.67 675.41
  L 220.66 656.45
  A 0.49 0.49 0.0 0 0 220.41 655.65
  C 213.76 654.15 211.83 647.71 215.83 642.46
  Q 225.17 630.21 234.36 617.67
  Q 235.88 615.61 237.09 613.50
  A 0.82 0.81 -59.5 0 0 236.81 612.40
  C 232.03 609.46 229.35 602.25 234.70 598.51
  C 241.48 593.76 248.07 583.94 248.78 574.95
  Q 250.43 554.07 235.53 538.75
  C 231.35 534.45 225.28 533.13 220.69 537.77
  C 218.67 539.82 218.52 542.38 219.37 545.02
  Q 221.40 551.36 223.02 557.00
  Q 224.90 563.54 223.56 575.18
  Q 200.63 578.22 180.42 568.36
  Q 151.33 554.16 135.45 526.37
  Q 120.27 499.82 122.67 466.53
  C 125.24 430.91 150.37 397.35 182.42 382.67
  Q 214.40 368.03 249.35 374.06
  Q 249.84 374.15 250.03 373.69
  Q 271.77 319.22 327.13 304.07
  Q 357.76 295.68 390.66 305.02
  Q 391.14 305.16 391.32 304.70
  C 406.31 266.61 438.20 239.94 478.87 234.17
  Q 494.66 231.94 509.15 233.78
  C 513.59 234.34 518.07 235.25 522.42 236.22
  Q 523.06 236.36 523.41 235.82
  Q 547.90 197.31 589.79 179.95
  Q 636.99 160.40 686.67 173.14
  C 717.36 181.01 744.72 199.12 765.08 223.30
  C 783.30 244.94 796.34 270.74 800.50 297.99
  Q 800.59 298.60 801.20 298.65
  Q 837.50 301.65 863.54 325.65
  C 888.57 348.72 902.84 383.03 898.27 417.04
  C 892.74 458.19 865.04 491.95 825.95 504.62
  Q 813.80 508.56 798.86 510.12
  A 0.86 0.86 0.0 0 0 798.11 510.81
  C 797.29 515.11 796.38 519.49 794.84 523.60
  Q 785.43 548.60 763.87 564.67
  Q 763.42 565.00 763.60 565.52
  Q 767.52 577.05 767.00 588.26
  C 766.81 592.34 765.80 596.37 765.30 600.50
  C 764.47 607.46 767.55 613.47 775.69 612.52
  Q 781.29 611.87 783.67 606.33
  Q 785.35 602.41 787.16 598.47
  Q 789.61 593.15 795.55 589.85
  Z
  M 568.0623 247.9340
  A 10.52 10.32 39.8 0 0 566.5859 233.2713
  A 10.52 10.32 39.8 0 0 551.8977 234.4660
  A 10.52 10.32 39.8 0 0 553.3741 249.1287
  A 10.52 10.32 39.8 0 0 568.0623 247.9340
  Z
  M 770.2561 314.9475
  A 10.82 10.45 62.5 0 0 774.5293 300.5247
  A 10.82 10.45 62.5 0 0 760.2639 295.7525
  A 10.82 10.45 62.5 0 0 755.9907 310.1753
  A 10.82 10.45 62.5 0 0 770.2561 314.9475
  Z
  M 294.4480 388.6937
  A 10.75 10.48 45.7 0 0 294.4405 373.6806
  A 10.75 10.48 45.7 0 0 279.4320 373.3063
  A 10.75 10.48 45.7 0 0 279.4395 388.3194
  A 10.75 10.48 45.7 0 0 294.4480 388.6937
  Z"
/>
<ellipse fill="#ffffff" cx="0.00" cy="0.00" transform="translate(559.98,241.20) rotate(39.8)" rx="10.52" ry="10.32"/>
<path fill="#ffffff" d="
  M 689.12 300.48
  Q 684.51 301.27 683.27 301.15
  Q 669.90 299.87 662.28 288.73
  Q 658.51 283.22 657.88 276.54
  Q 657.72 262.08 668.07 254.32
  Q 673.00 250.62 678.56 249.49
  C 692.60 246.64 706.76 256.45 708.71 270.61
  C 710.64 284.66 702.91 296.22 689.12 300.48
  Z"
/>
<path fill="#59798b" d="
  M 657.88 276.54
  Q 658.51 283.22 662.28 288.73
  Q 669.90 299.87 683.27 301.15
  Q 684.51 301.27 689.12 300.48
  Q 707.81 321.05 706.24 348.94
  A 0.63 0.63 0.0 0 1 705.21 349.39
  Q 699.72 344.88 693.81 340.88
  C 677.37 329.75 658.79 324.87 639.09 326.13
  C 606.76 328.20 580.24 344.59 563.44 372.51
  Q 559.96 378.29 557.94 383.00
  Q 550.90 399.33 550.68 418.21
  A 1.16 1.16 0.0 0 0 551.84 419.38
  L 578.13 419.25
  A 1.75 1.75 0.0 0 0 579.70 418.27
  C 587.70 401.99 602.08 388.05 619.70 382.51
  C 637.66 376.87 659.10 378.27 675.51 388.11
  Q 678.56 389.94 682.35 389.95
  Q 691.35 389.99 697.90 389.42
  Q 699.57 389.27 700.66 387.81
  C 709.04 376.66 719.40 366.60 732.06 360.10
  Q 761.91 344.80 796.62 354.83
  Q 802.66 356.58 809.02 359.99
  Q 835.06 373.98 846.43 400.06
  Q 852.26 413.45 852.51 427.11
  C 852.73 439.04 851.55 449.92 846.56 460.96
  Q 836.71 482.76 815.64 496.78
  Q 803.22 505.05 790.03 509.68
  Q 775.90 514.64 758.69 517.87
  C 753.04 518.93 749.75 521.22 747.07 526.37
  C 743.00 534.20 738.06 542.57 731.35 548.39
  Q 727.27 542.05 720.62 534.87
  Q 705.53 518.57 688.37 509.27
  C 684.50 507.18 680.48 504.56 676.78 503.95
  Q 665.11 502.01 661.26 511.75
  Q 656.89 506.66 650.24 507.25
  C 641.84 508.01 636.11 517.76 639.06 525.70
  C 643.34 537.22 658.60 545.60 649.41 559.40
  A 1.24 1.24 0.0 0 1 647.33 559.39
  C 645.43 556.47 644.01 553.10 641.88 550.34
  C 635.60 542.26 627.44 537.00 618.79 531.55
  C 611.20 526.78 607.28 519.84 607.03 511.16
  C 606.79 502.59 606.08 495.50 600.15 488.90
  Q 595.08 483.25 588.10 482.51
  C 584.43 482.12 582.22 484.18 579.50 485.17
  Q 575.41 477.64 573.43 474.80
  Q 561.20 457.27 544.54 444.96
  Q 540.65 442.08 539.26 440.80
  Q 539.25 435.67 538.24 430.98
  C 534.49 413.39 520.07 400.06 501.91 399.33
  C 484.50 398.63 469.72 407.87 464.09 424.82
  C 459.92 437.39 463.00 449.66 471.01 460.32
  Q 474.52 464.99 477.74 469.79
  C 483.00 477.62 481.87 492.69 469.92 493.94
  Q 468.64 494.07 467.82 493.08
  C 460.46 484.27 452.71 480.42 440.99 482.26
  C 429.06 484.13 420.78 494.46 419.98 506.20
  C 419.09 519.16 430.49 532.16 443.27 533.50
  Q 443.67 539.71 442.30 544.48
  Q 433.51 545.06 427.74 546.73
  Q 401.75 554.27 390.95 578.99
  Q 388.77 583.98 387.87 589.95
  A 1.46 1.46 0.0 0 1 386.04 591.14
  C 381.37 589.83 378.78 584.19 378.36 579.70
  C 377.76 573.24 381.13 566.63 382.27 560.27
  Q 384.17 549.75 381.16 539.11
  C 378.31 528.99 369.28 521.38 358.52 525.33
  Q 356.78 525.97 354.51 526.66
  Q 342.40 500.57 320.41 481.83
  Q 313.18 475.67 305.63 470.46
  Q 296.60 464.23 287.62 460.31
  C 278.27 456.23 267.15 452.69 260.34 462.25
  Q 257.01 462.05 253.98 462.39
  C 247.67 463.11 243.18 467.71 241.42 473.68
  C 238.55 483.48 245.70 491.51 251.00 498.67
  C 255.46 504.70 257.30 512.66 253.04 519.21
  Q 251.10 522.19 247.57 523.21
  A 2.09 2.08 -20.8 0 1 245.11 522.11
  Q 240.12 511.74 228.01 510.16
  C 219.66 509.08 210.09 511.23 204.21 517.68
  C 197.69 524.85 194.94 534.14 197.13 543.57
  Q 197.94 547.02 199.05 550.31
  A 0.67 0.66 -9.7 0 1 198.42 551.19
  C 195.86 551.21 191.93 547.39 190.02 545.50
  C 166.30 521.88 161.40 480.75 182.02 453.02
  Q 198.47 430.89 224.12 425.42
  Q 249.71 419.95 273.08 430.51
  C 277.00 432.28 280.39 435.32 284.35 436.55
  Q 287.81 437.63 292.09 437.18
  Q 302.86 436.04 313.70 434.26
  A 2.49 2.49 0.0 0 0 315.75 432.21
  Q 316.27 429.05 316.89 425.75
  Q 322.95 393.70 348.92 374.41
  C 368.02 360.22 391.87 356.64 414.99 361.79
  A 1.48 1.48 0.0 0 0 416.78 360.52
  C 419.13 340.58 429.84 321.49 445.09 308.39
  C 471.98 285.28 511.09 283.17 540.84 302.51
  C 544.58 304.95 547.78 307.89 551.50 310.23
  Q 552.01 310.55 552.60 310.56
  Q 561.97 310.70 571.45 310.17
  C 572.99 310.09 574.00 309.51 574.73 308.16
  Q 587.54 284.55 612.84 276.18
  Q 632.89 269.54 655.32 275.53
  C 656.26 275.78 657.03 276.51 657.31 277.42
  Q 657.61 278.38 657.76 277.39
  L 657.88 276.54
  Z
  M 482.8219 366.9150
  A 13.04 12.81 61.0 0 0 487.7039 349.2996
  A 13.04 12.81 61.0 0 0 470.1781 344.1050
  A 13.04 12.81 61.0 0 0 465.2961 361.7204
  A 13.04 12.81 61.0 0 0 482.8219 366.9150
  Z
  M 408.0342 441.1145
  A 25.05 24.51 59.1 0 0 416.2012 407.0331
  A 25.05 24.51 59.1 0 0 382.3058 398.1255
  A 25.05 24.51 59.1 0 0 374.1388 432.2069
  A 25.05 24.51 59.1 0 0 408.0342 441.1145
  Z
  M 804.99 445.24
  A 23.72 23.72 0.0 0 0 781.27 421.52
  A 23.72 23.72 0.0 0 0 757.55 445.24
  A 23.72 23.72 0.0 0 0 781.27 468.96
  A 23.72 23.72 0.0 0 0 804.99 445.24
  Z
  M 665.0356 459.4564
  A 13.38 13.19 26.1 0 0 658.8228 441.7250
  A 13.38 13.19 26.1 0 0 641.0044 447.6836
  A 13.38 13.19 26.1 0 0 647.2172 465.4150
  A 13.38 13.19 26.1 0 0 665.0356 459.4564
  Z"
/>
<ellipse fill="#ffffff" cx="0.00" cy="0.00" transform="translate(765.26,305.35) rotate(62.5)" rx="10.82" ry="10.45"/>
<ellipse fill="#ffffff" cx="0.00" cy="0.00" transform="translate(476.50,355.51) rotate(61.0)" rx="13.04" ry="12.81"/>
<ellipse fill="#ffffff" cx="0.00" cy="0.00" transform="translate(286.94,381.00) rotate(45.7)" rx="10.75" ry="10.48"/>
<ellipse fill="#ffffff" cx="0.00" cy="0.00" transform="translate(395.17,419.62) rotate(59.1)" rx="25.05" ry="24.51"/>
<path fill="#0b2f42" d="
  M 539.26 440.80
  Q 525.91 431.73 511.48 426.62
  Q 504.75 424.24 499.41 423.79
  C 494.49 423.38 487.84 426.29 486.25 431.26
  C 484.34 437.18 487.28 440.40 491.71 444.43
  Q 494.62 447.07 497.52 449.73
  Q 508.14 459.48 513.73 472.42
  C 518.33 486.32 518.96 498.23 512.22 511.70
  C 506.00 524.15 494.03 533.74 481.23 538.72
  Q 480.48 539.02 480.52 539.62
  C 480.15 540.23 479.74 541.10 479.67 541.84
  Q 478.18 559.39 468.26 574.26
  Q 464.96 579.20 460.93 581.43
  C 454.10 585.21 448.40 578.07 450.96 571.83
  Q 451.73 569.95 453.58 568.45
  Q 464.24 559.77 466.74 546.81
  Q 470.33 528.21 458.04 510.96
  C 453.84 505.07 446.78 501.74 440.73 507.84
  Q 438.48 510.11 439.43 513.14
  C 441.54 519.81 442.91 526.10 443.27 533.50
  C 430.49 532.16 419.09 519.16 419.98 506.20
  C 420.78 494.46 429.06 484.13 440.99 482.26
  C 452.71 480.42 460.46 484.27 467.82 493.08
  Q 468.64 494.07 469.92 493.94
  C 481.87 492.69 483.00 477.62 477.74 469.79
  Q 474.52 464.99 471.01 460.32
  C 463.00 449.66 459.92 437.39 464.09 424.82
  C 469.72 407.87 484.50 398.63 501.91 399.33
  C 520.07 400.06 534.49 413.39 538.24 430.98
  Q 539.25 435.67 539.26 440.80
  Z"
/>
<circle fill="#ffffff" cx="781.27" cy="445.24" r="23.72"/>
<path fill="#ff5f4a" d="
  M 539.26 440.80
  Q 540.65 442.08 544.54 444.96
  Q 561.20 457.27 573.43 474.80
  Q 575.41 477.64 579.50 485.17
  Q 584.79 496.37 585.51 506.50
  Q 586.07 514.47 586.43 522.63
  C 586.79 530.79 593.26 538.27 599.67 542.73
  C 606.11 547.21 612.88 551.09 618.57 556.44
  Q 641.63 578.17 638.81 611.78
  C 637.34 629.26 627.15 646.22 615.39 659.92
  C 611.65 664.28 612.86 670.98 619.19 671.83
  C 627.11 672.90 638.69 651.52 641.37 645.76
  C 644.44 639.17 646.93 629.80 649.56 623.30
  Q 650.19 621.75 652.27 619.90
  Q 654.29 627.27 656.45 634.87
  Q 661.81 653.76 655.26 671.23
  C 648.86 688.29 633.09 698.84 614.95 694.85
  C 605.93 692.87 598.19 686.40 596.67 677.00
  Q 595.41 669.16 601.70 665.53
  Q 602.31 665.19 601.91 664.61
  C 599.30 660.80 597.35 657.74 599.33 653.12
  Q 601.21 648.72 603.25 644.37
  C 611.50 626.76 609.85 607.15 596.28 592.56
  C 589.21 584.97 580.45 579.44 572.10 573.72
  Q 561.90 566.72 555.07 555.73
  Q 548.46 545.09 549.32 533.05
  C 550.14 521.43 550.95 511.18 545.62 500.63
  C 539.95 489.41 531.47 481.07 520.33 475.75
  Q 517.04 474.18 513.73 472.42
  Q 508.14 459.48 497.52 449.73
  Q 494.62 447.07 491.71 444.43
  C 487.28 440.40 484.34 437.18 486.25 431.26
  C 487.84 426.29 494.49 423.38 499.41 423.79
  Q 504.75 424.24 511.48 426.62
  Q 525.91 431.73 539.26 440.80
  Z"
/>
<ellipse fill="#ffffff" cx="0.00" cy="0.00" transform="translate(653.02,453.57) rotate(26.1)" rx="13.38" ry="13.19"/>
<path fill="#ff5f4a" d="
  M 354.51 526.66
  Q 357.34 533.87 358.43 538.54
  Q 360.46 547.24 360.11 558.40
  C 359.84 567.03 356.75 575.49 354.01 583.65
  C 347.88 601.90 359.59 618.33 374.70 627.35
  Q 386.46 634.36 400.66 638.85
  A 0.44 0.44 0.0 0 0 401.22 638.35
  C 397.47 619.33 399.85 599.03 410.31 582.50
  C 414.10 576.52 419.93 570.04 425.19 565.53
  C 432.38 559.38 438.68 553.53 442.30 544.48
  Q 443.67 539.71 443.27 533.50
  C 442.91 526.10 441.54 519.81 439.43 513.14
  Q 438.48 510.11 440.73 507.84
  C 446.78 501.74 453.84 505.07 458.04 510.96
  Q 470.33 528.21 466.74 546.81
  Q 464.24 559.77 453.58 568.45
  Q 451.73 569.95 450.96 571.83
  C 448.40 578.07 454.10 585.21 460.93 581.43
  Q 464.96 579.20 468.26 574.26
  Q 478.18 559.39 479.67 541.84
  C 479.74 541.10 480.15 540.23 480.52 539.62
  Q 481.68 540.01 482.32 540.93
  Q 493.00 556.41 492.10 574.58
  C 491.27 591.62 482.40 605.48 466.68 612.77
  Q 460.53 615.62 454.29 618.38
  C 445.98 622.05 438.90 627.98 433.36 635.32
  Q 431.42 637.89 430.13 640.98
  Q 423.84 656.08 427.30 671.40
  Q 428.23 675.52 429.41 679.47
  C 432.74 690.61 428.63 700.76 415.55 701.03
  C 414.19 701.06 412.85 700.79 411.53 700.52
  A 0.57 0.57 0.0 0 0 410.85 700.99
  C 408.93 713.61 406.06 725.44 398.70 736.24
  C 395.03 741.63 392.13 745.62 387.32 749.11
  L 378.75 734.50
  Q 379.19 733.43 379.36 732.16
  Q 379.55 730.76 380.10 729.48
  Q 385.49 716.86 385.58 705.29
  Q 385.76 681.07 366.62 664.59
  Q 360.87 659.63 353.71 655.64
  C 337.05 646.35 318.58 637.09 309.44 619.20
  Q 300.52 601.74 307.22 582.65
  C 309.74 575.47 314.17 568.86 316.00 561.43
  C 320.39 543.59 312.04 524.77 297.90 513.68
  C 295.50 511.80 291.85 509.83 288.98 507.50
  Q 283.52 495.12 273.75 485.51
  Q 268.64 480.48 263.20 475.80
  C 259.61 472.70 259.27 467.17 260.34 462.25
  C 267.15 452.69 278.27 456.23 287.62 460.31
  Q 296.60 464.23 305.63 470.46
  Q 313.18 475.67 320.41 481.83
  Q 342.40 500.57 354.51 526.66
  Z"
/>
<path fill="#ffffff" d="
  M 513.73 472.42
  Q 517.04 474.18 520.33 475.75
  C 531.47 481.07 539.95 489.41 545.62 500.63
  C 550.95 511.18 550.14 521.43 549.32 533.05
  Q 548.46 545.09 555.07 555.73
  Q 561.90 566.72 572.10 573.72
  C 580.45 579.44 589.21 584.97 596.28 592.56
  C 609.85 607.15 611.50 626.76 603.25 644.37
  Q 601.21 648.72 599.33 653.12
  C 597.35 657.74 599.30 660.80 601.91 664.61
  Q 602.31 665.19 601.70 665.53
  Q 595.41 669.16 596.67 677.00
  C 598.19 686.40 605.93 692.87 614.95 694.85
  C 633.09 698.84 648.86 688.29 655.26 671.23
  Q 661.81 653.76 656.45 634.87
  Q 654.29 627.27 652.27 619.90
  L 652.61 613.38
  A 1.08 1.06 -6.5 0 1 653.39 612.41
  C 658.23 611.04 663.14 607.30 667.02 604.17
  Q 671.34 600.69 674.70 596.64
  Q 691.26 576.67 683.59 550.30
  Q 683.99 549.59 684.93 550.86
  Q 685.38 551.47 685.88 551.80
  C 702.61 562.90 711.03 583.73 701.75 602.93
  C 696.59 613.61 693.31 624.19 695.96 635.35
  C 700.29 653.60 715.46 664.27 730.66 673.63
  C 739.05 678.79 746.99 686.33 751.95 695.09
  C 760.17 709.60 759.90 728.27 754.05 743.47
  Q 752.47 747.58 749.83 753.13
  C 748.90 755.11 749.47 759.70 752.50 759.22
  Q 757.99 758.35 762.67 752.99
  L 786.78 752.39
  A 0.39 0.38 -74.0 0 1 787.11 752.99
  L 745.44 814.64
  Q 742.53 818.24 735.08 818.65
  Q 735.82 815.09 734.49 813.02
  Q 720.97 791.94 707.06 771.62
  A 0.50 0.50 0.0 0 1 707.48 770.84
  Q 714.32 770.96 720.76 771.18
  C 725.78 771.36 729.08 766.35 725.56 762.07
  Q 722.05 757.81 717.31 752.84
  Q 709.25 744.39 701.70 734.86
  Q 700.98 733.95 702.12 734.17
  Q 705.16 734.74 708.51 734.80
  C 713.17 734.88 717.96 729.87 714.57 725.40
  Q 697.19 702.52 683.52 679.98
  C 680.31 674.67 674.85 675.93 671.87 680.57
  Q 662.85 694.65 653.13 709.00
  Q 648.35 716.06 642.88 722.51
  C 640.24 725.63 638.15 729.22 641.40 732.83
  C 643.86 735.56 648.79 735.02 652.21 734.65
  Q 653.70 734.49 652.77 735.67
  Q 641.69 749.69 630.48 761.45
  C 626.67 765.43 628.85 771.26 634.33 771.22
  Q 641.10 771.17 648.58 770.82
  A 0.40 0.40 0.0 0 1 648.93 771.44
  L 620.58 813.76
  Q 618.49 814.69 616.93 812.71
  Q 615.98 809.57 614.43 807.32
  Q 592.29 775.14 570.07 743.15
  Q 567.56 739.52 565.32 735.76
  Q 564.97 735.16 565.66 735.17
  Q 581.71 735.37 595.69 735.55
  Q 598.16 735.59 599.75 734.46
  C 602.45 732.55 604.13 728.81 602.23 725.71
  Q 601.21 724.04 599.88 722.32
  Q 579.28 695.53 558.94 668.33
  A 0.47 0.47 0.0 0 1 559.34 667.58
  Q 566.00 667.92 572.78 668.00
  Q 577.99 668.06 580.26 663.59
  C 581.80 660.56 579.97 657.34 578.11 654.81
  Q 552.79 620.44 528.95 584.43
  C 524.73 578.06 518.24 578.92 514.39 584.80
  Q 490.45 621.44 465.73 655.21
  C 463.71 657.98 462.85 661.20 464.67 664.25
  C 466.52 667.38 469.24 668.08 472.75 668.00
  Q 478.47 667.87 484.32 667.70
  A 0.33 0.33 0.0 0 1 484.60 668.21
  Q 482.01 671.97 479.30 675.56
  Q 465.48 693.90 451.69 712.62
  C 448.99 716.28 445.38 720.44 442.39 724.55
  C 439.21 728.94 441.46 735.59 447.32 735.56
  Q 462.83 735.49 477.87 735.31
  A 0.37 0.37 0.0 0 1 478.20 735.86
  Q 477.17 737.73 476.06 739.36
  C 459.49 763.72 445.90 784.09 429.42 807.97
  Q 425.42 813.76 429.72 820.26
  Q 422.30 825.79 412.19 827.84
  Q 413.25 824.68 410.43 819.81
  Q 400.04 801.91 389.03 782.67
  A 0.36 0.35 -13.4 0 1 389.36 782.14
  Q 393.46 782.29 397.80 782.30
  C 401.79 782.30 405.16 778.58 403.66 774.58
  Q 402.71 772.05 401.48 770.28
  Q 393.14 758.28 387.32 749.11
  C 392.13 745.62 395.03 741.63 398.70 736.24
  C 406.06 725.44 408.93 713.61 410.85 700.99
  A 0.57 0.57 0.0 0 1 411.53 700.52
  C 412.85 700.79 414.19 701.06 415.55 701.03
  C 428.63 700.76 432.74 690.61 429.41 679.47
  Q 428.23 675.52 427.30 671.40
  Q 423.84 656.08 430.13 640.98
  Q 431.42 637.89 433.36 635.32
  C 438.90 627.98 445.98 622.05 454.29 618.38
  Q 460.53 615.62 466.68 612.77
  C 482.40 605.48 491.27 591.62 492.10 574.58
  Q 493.00 556.41 482.32 540.93
  Q 481.68 540.01 480.52 539.62
  Q 480.48 539.02 481.23 538.72
  C 494.03 533.74 506.00 524.15 512.22 511.70
  C 518.96 498.23 518.33 486.32 513.73 472.42
  Z"
/>
<path fill="#0b2f42" d="
  M 661.26 511.75
  Q 660.56 518.38 663.72 521.50
  Q 669.48 527.21 671.85 529.90
  Q 679.79 538.88 683.59 550.30
  Q 691.26 576.67 674.70 596.64
  Q 671.34 600.69 667.02 604.17
  C 663.14 607.30 658.23 611.04 653.39 612.41
  A 1.08 1.06 -6.5 0 0 652.61 613.38
  L 652.27 619.90
  Q 650.19 621.75 649.56 623.30
  C 646.93 629.80 644.44 639.17 641.37 645.76
  C 638.69 651.52 627.11 672.90 619.19 671.83
  C 612.86 670.98 611.65 664.28 615.39 659.92
  C 627.15 646.22 637.34 629.26 638.81 611.78
  Q 641.63 578.17 618.57 556.44
  C 612.88 551.09 606.11 547.21 599.67 542.73
  C 593.26 538.27 586.79 530.79 586.43 522.63
  Q 586.07 514.47 585.51 506.50
  Q 584.79 496.37 579.50 485.17
  C 582.22 484.18 584.43 482.12 588.10 482.51
  Q 595.08 483.25 600.15 488.90
  C 606.08 495.50 606.79 502.59 607.03 511.16
  C 607.28 519.84 611.20 526.78 618.79 531.55
  C 627.44 537.00 635.60 542.26 641.88 550.34
  C 644.01 553.10 645.43 556.47 647.33 559.39
  A 1.24 1.24 0.0 0 0 649.41 559.40
  C 658.60 545.60 643.34 537.22 639.06 525.70
  C 636.11 517.76 641.84 508.01 650.24 507.25
  Q 656.89 506.66 661.26 511.75
  Z"
/>
<path fill="#ff5f4a" d="
  M 731.35 548.39
  Q 736.38 556.44 737.72 559.31
  Q 746.30 577.79 743.87 598.04
  C 743.22 603.47 741.27 608.81 740.78 614.25
  C 739.76 625.83 750.85 634.40 761.15 636.49
  Q 779.26 640.16 791.01 627.94
  C 795.68 623.09 797.95 616.35 797.99 609.62
  Q 798.00 607.53 796.58 600.66
  Q 795.44 595.16 795.55 589.85
  C 803.77 580.27 814.09 584.89 818.41 595.02
  Q 825.10 610.69 821.45 627.72
  Q 816.94 628.32 814.49 632.01
  Q 796.28 659.44 776.16 685.64
  Q 774.05 688.40 773.64 690.42
  C 772.59 695.68 777.47 697.93 782.07 697.72
  Q 787.07 697.50 791.72 697.01
  A 0.87 0.87 0.0 0 1 792.54 698.36
  Q 790.96 700.74 789.30 703.05
  C 780.46 715.31 771.77 728.19 761.88 740.34
  Q 759.11 743.74 758.88 746.36
  Q 758.51 750.45 762.67 752.99
  Q 757.99 758.35 752.50 759.22
  C 749.47 759.70 748.90 755.11 749.83 753.13
  Q 752.47 747.58 754.05 743.47
  C 759.90 728.27 760.17 709.60 751.95 695.09
  C 746.99 686.33 739.05 678.79 730.66 673.63
  C 715.46 664.27 700.29 653.60 695.96 635.35
  C 693.31 624.19 696.59 613.61 701.75 602.93
  C 711.03 583.73 702.61 562.90 685.88 551.80
  Q 685.38 551.47 684.93 550.86
  Q 683.99 549.59 683.59 550.30
  Q 679.79 538.88 671.85 529.90
  Q 669.48 527.21 663.72 521.50
  Q 660.56 518.38 661.26 511.75
  Q 665.11 502.01 676.78 503.95
  C 680.48 504.56 684.50 507.18 688.37 509.27
  Q 705.53 518.57 720.62 534.87
  Q 727.27 542.05 731.35 548.39
  Z"
/>
<path fill="#ffffff" d="
  M 288.98 507.50
  C 291.85 509.83 295.50 511.80 297.90 513.68
  C 312.04 524.77 320.39 543.59 316.00 561.43
  C 314.17 568.86 309.74 575.47 307.22 582.65
  Q 300.52 601.74 309.44 619.20
  C 318.58 637.09 337.05 646.35 353.71 655.64
  Q 360.87 659.63 366.62 664.59
  Q 385.76 681.07 385.58 705.29
  Q 385.49 716.86 380.10 729.48
  Q 379.55 730.76 379.36 732.16
  Q 379.19 733.43 378.75 734.50
  Q 375.54 729.48 373.00 724.52
  C 369.77 718.24 364.54 718.09 360.90 724.03
  Q 350.92 740.31 342.24 754.04
  C 338.45 760.04 334.04 765.60 329.79 771.19
  Q 328.32 773.13 327.96 775.71
  C 327.39 779.86 331.58 782.53 335.19 782.32
  Q 337.77 782.17 340.35 782.18
  Q 341.36 782.19 340.86 783.07
  L 331.76 799.09
  Q 331.27 799.95 330.71 799.14
  L 298.14 752.07
  A 0.33 0.33 0.0 0 1 298.42 751.56
  Q 312.13 751.90 323.77 751.75
  C 324.87 751.74 326.11 751.70 327.07 751.06
  Q 333.90 746.43 328.61 739.67
  Q 311.92 718.38 294.18 694.80
  A 0.18 0.17 -17.4 0 1 294.33 694.52
  Q 300.48 694.68 307.96 694.91
  Q 311.08 695.00 312.95 694.62
  C 315.18 694.15 318.24 691.61 317.32 688.94
  Q 316.49 686.52 314.13 684.14
  Q 300.55 670.47 288.62 656.08
  Q 287.64 654.89 289.16 655.19
  Q 291.43 655.65 293.19 654.22
  Q 299.26 649.34 294.59 643.15
  Q 283.09 627.90 276.10 618.16
  Q 274.45 615.86 272.17 612.02
  C 272.21 599.40 267.93 588.10 261.74 577.37
  L 261.80 574.74
  A 0.75 0.74 80.0 0 1 262.27 574.06
  Q 268.01 571.76 274.56 566.62
  C 288.69 555.53 296.47 538.63 293.01 520.74
  Q 291.70 513.99 288.98 507.50
  Z"
/>
<path fill="#0b2f42" d="
  M 442.30 544.48
  C 438.68 553.53 432.38 559.38 425.19 565.53
  C 419.93 570.04 414.10 576.52 410.31 582.50
  C 399.85 599.03 397.47 619.33 401.22 638.35
  A 0.44 0.44 0.0 0 1 400.66 638.85
  Q 386.46 634.36 374.70 627.35
  C 359.59 618.33 347.88 601.90 354.01 583.65
  C 356.75 575.49 359.84 567.03 360.11 558.40
  Q 360.46 547.24 358.43 538.54
  Q 357.34 533.87 354.51 526.66
  Q 356.78 525.97 358.52 525.33
  C 369.28 521.38 378.31 528.99 381.16 539.11
  Q 384.17 549.75 382.27 560.27
  C 381.13 566.63 377.76 573.24 378.36 579.70
  C 378.78 584.19 381.37 589.83 386.04 591.14
  A 1.46 1.46 0.0 0 0 387.87 589.95
  Q 388.77 583.98 390.95 578.99
  Q 401.75 554.27 427.74 546.73
  Q 433.51 545.06 442.30 544.48
  Z"
/>
<path fill="#ff5f4a" d="
  M 203.67 675.41
  Q 201.64 674.78 201.11 674.39
  Q 199.04 672.85 196.49 668.30
  Q 189.35 655.58 188.55 642.79
  Q 187.40 624.55 195.57 610.25
  C 199.96 602.58 206.10 596.40 212.47 590.63
  Q 219.81 583.99 223.56 576.27
  Q 223.85 575.66 223.56 575.18
  Q 224.90 563.54 223.02 557.00
  Q 221.40 551.36 219.37 545.02
  C 218.52 542.38 218.67 539.82 220.69 537.77
  C 225.28 533.13 231.35 534.45 235.53 538.75
  Q 250.43 554.07 248.78 574.95
  C 248.07 583.94 241.48 593.76 234.70 598.51
  C 229.35 602.25 232.03 609.46 236.81 612.40
  A 0.82 0.81 -59.5 0 1 237.09 613.50
  Q 235.88 615.61 234.36 617.67
  Q 225.17 630.21 215.83 642.46
  C 211.83 647.71 213.76 654.15 220.41 655.65
  A 0.49 0.49 0.0 0 1 220.66 656.45
  L 203.67 675.41
  Z"
/>
<path fill="#ff5f4a" d="
  M 261.74 577.37
  C 267.93 588.10 272.21 599.40 272.17 612.02
  Q 266.39 604.07 260.89 597.10
  Q 259.00 594.70 255.79 594.64
  A 0.60 0.60 0.0 0 1 255.25 593.82
  L 261.74 577.37
  Z"
/>
<path fill="#0b2f42" d="
  M 616.93 812.71
  Q 616.64 822.77 606.48 822.77
  Q 572.10 822.76 536.27 822.80
  Q 535.63 822.80 535.63 823.44
  Q 535.50 839.21 535.62 850.54
  C 535.82 869.06 507.83 870.45 508.15 849.98
  Q 508.37 836.77 508.25 823.45
  A 0.61 0.60 89.5 0 0 507.65 822.85
  Q 472.50 822.70 437.25 822.80
  Q 431.93 822.81 429.72 820.26
  Q 425.42 813.76 429.42 807.97
  C 445.90 784.09 459.49 763.72 476.06 739.36
  Q 477.17 737.73 478.20 735.86
  A 0.37 0.37 0.0 0 0 477.87 735.31
  Q 462.83 735.49 447.32 735.56
  C 441.46 735.59 439.21 728.94 442.39 724.55
  C 445.38 720.44 448.99 716.28 451.69 712.62
  Q 465.48 693.90 479.30 675.56
  Q 482.01 671.97 484.60 668.21
  A 0.33 0.33 0.0 0 0 484.32 667.70
  Q 478.47 667.87 472.75 668.00
  C 469.24 668.08 466.52 667.38 464.67 664.25
  C 462.85 661.20 463.71 657.98 465.73 655.21
  Q 490.45 621.44 514.39 584.80
  C 518.24 578.92 524.73 578.06 528.95 584.43
  Q 552.79 620.44 578.11 654.81
  C 579.97 657.34 581.80 660.56 580.26 663.59
  Q 577.99 668.06 572.78 668.00
  Q 566.00 667.92 559.34 667.58
  A 0.47 0.47 0.0 0 0 558.94 668.33
  Q 579.28 695.53 599.88 722.32
  Q 601.21 724.04 602.23 725.71
  C 604.13 728.81 602.45 732.55 599.75 734.46
  Q 598.16 735.59 595.69 735.55
  Q 581.71 735.37 565.66 735.17
  Q 564.97 735.16 565.32 735.76
  Q 567.56 739.52 570.07 743.15
  Q 592.29 775.14 614.43 807.32
  Q 615.98 809.57 616.93 812.71
  Z"
/>
<path fill="#0b2f42" d="
  M 821.45 627.72
  C 825.59 628.15 827.07 630.00 829.30 633.48
  Q 847.36 661.54 867.39 686.98
  Q 871.36 692.01 866.67 696.05
  Q 864.91 697.57 860.09 697.25
  Q 855.05 696.92 849.70 696.79
  Q 849.12 696.78 849.39 697.29
  Q 850.70 699.82 852.58 702.34
  Q 862.17 715.17 873.80 731.77
  C 876.64 735.82 879.93 739.36 882.42 743.69
  Q 883.57 745.69 882.89 747.82
  Q 881.42 752.39 876.49 752.45
  Q 866.39 752.58 855.72 752.22
  A 0.44 0.44 0.0 0 0 855.34 752.90
  Q 870.62 775.92 885.47 797.75
  Q 889.02 802.97 892.71 808.24
  C 894.39 810.64 896.62 814.17 895.86 817.13
  Q 894.22 823.44 887.69 823.45
  Q 861.89 823.50 832.45 823.71
  Q 831.72 823.72 831.71 824.45
  Q 831.68 837.89 831.70 851.20
  C 831.71 857.45 828.95 862.40 822.72 863.80
  C 814.39 865.68 809.27 859.28 809.37 851.51
  Q 809.54 838.15 809.52 824.13
  A 0.49 0.49 0.0 0 0 809.03 823.64
  Q 780.69 823.33 753.62 823.76
  Q 751.36 823.80 749.32 822.69
  Q 746.58 821.21 745.44 814.64
  L 787.11 752.99
  A 0.39 0.38 -74.0 0 0 786.78 752.39
  L 762.67 752.99
  Q 758.51 750.45 758.88 746.36
  Q 759.11 743.74 761.88 740.34
  C 771.77 728.19 780.46 715.31 789.30 703.05
  Q 790.96 700.74 792.54 698.36
  A 0.87 0.87 0.0 0 0 791.72 697.01
  Q 787.07 697.50 782.07 697.72
  C 777.47 697.93 772.59 695.68 773.64 690.42
  Q 774.05 688.40 776.16 685.64
  Q 796.28 659.44 814.49 632.01
  Q 816.94 628.32 821.45 627.72
  Z"
/>
<path fill="#0b2f42" d="
  M 735.08 818.65
  Q 732.97 824.79 726.25 824.79
  Q 707.19 824.81 689.44 824.98
  Q 688.94 824.98 688.93 825.48
  Q 688.64 835.16 688.74 845.08
  Q 688.81 852.97 688.27 855.37
  C 687.04 860.85 681.47 864.73 675.66 863.57
  C 670.49 862.54 667.87 857.27 667.85 852.33
  Q 667.79 839.13 667.79 825.36
  A 0.62 0.62 0.0 0 0 667.18 824.74
  Q 650.12 824.60 629.96 825.03
  C 623.04 825.18 619.18 821.29 620.58 813.76
  L 648.93 771.44
  A 0.40 0.40 0.0 0 0 648.58 770.82
  Q 641.10 771.17 634.33 771.22
  C 628.85 771.26 626.67 765.43 630.48 761.45
  Q 641.69 749.69 652.77 735.67
  Q 653.70 734.49 652.21 734.65
  C 648.79 735.02 643.86 735.56 641.40 732.83
  C 638.15 729.22 640.24 725.63 642.88 722.51
  Q 648.35 716.06 653.13 709.00
  Q 662.85 694.65 671.87 680.57
  C 674.85 675.93 680.31 674.67 683.52 679.98
  Q 697.19 702.52 714.57 725.40
  C 717.96 729.87 713.17 734.88 708.51 734.80
  Q 705.16 734.74 702.12 734.17
  Q 700.98 733.95 701.70 734.86
  Q 709.25 744.39 717.31 752.84
  Q 722.05 757.81 725.56 762.07
  C 729.08 766.35 725.78 771.36 720.76 771.18
  Q 714.32 770.96 707.48 770.84
  A 0.50 0.50 0.0 0 0 707.06 771.62
  Q 720.97 791.94 734.49 813.02
  Q 735.82 815.09 735.08 818.65
  Z"
/>
</svg>
