<?xml version="1.0" encoding="UTF-8" standalone="no"?>
<!DOCTYPE svg PUBLIC "-//W3C//DTD SVG 1.1//EN" "http://www.w3.org/Graphics/SVG/1.1/DTD/svg11.dtd">
<svg xmlns="http://www.w3.org/2000/svg" version="1.1" viewBox="0.00 0.00 1024.00 1024.00">
<g stroke-width="2.00" fill="none" stroke-linecap="butt">
<path stroke="#d79c89" vector-effect="non-scaling-stroke" d="
  M 300.04 579.39
  C 303.82 587.58 310.45 599.01 318.68 605.19
  Q 325.37 610.21 331.88 615.45
  Q 343.97 625.18 347.52 640.24
  Q 347.76 641.26 347.63 642.28
  Q 347.40 644.01 348.57 642.71
  C 354.79 635.75 362.27 630.17 369.68 624.18
  A 1.59 1.58 56.2 0 0 370.07 622.19
  Q 357.33 598.81 371.29 576.30
  C 376.52 567.86 384.69 561.46 392.52 555.55
  C 408.66 543.35 421.83 527.74 431.18 509.84
  Q 436.47 499.72 441.56 487.48
  C 447.95 472.09 459.29 461.70 476.78 461.72
  C 493.60 461.73 505.75 475.11 511.70 489.55"
/>
<path stroke="#787f84" vector-effect="non-scaling-stroke" d="
  M 511.70 489.55
  L 514.89 497.19"
/>
<path stroke="#d79c89" vector-effect="non-scaling-stroke" d="
  M 514.89 497.19
  Q 515.66 499.67 516.88 502.35
  C 526.04 522.50 539.76 540.52 557.20 554.25
  Q 563.29 559.04 568.64 563.41
  C 571.70 565.91 574.42 568.79 577.27 571.57"
/>
<path stroke="#787f84" vector-effect="non-scaling-stroke" d="
  M 577.27 571.57
  L 583.36 580.43"
/>
<path stroke="#d79c89" vector-effect="non-scaling-stroke" d="
  M 583.36 580.43
  Q 584.51 583.66 585.59 586.50
  C 590.08 598.33 588.58 610.98 582.33 622.20
  A 1.13 1.13 0.0 0 0 582.59 623.61
  L 595.49 634.48"
/>
<path stroke="#878f96" vector-effect="non-scaling-stroke" d="
  M 595.49 634.48
  Q 598.39 637.23 602.54 641.20
  Q 616.20 654.28 618.07 672.87
  Q 619.72 689.29 613.83 702.93
  C 611.35 708.66 607.33 713.92 603.65 719.14
  Q 603.27 719.68 603.82 720.05
  Q 611.07 724.92 615.48 728.53
  Q 633.91 743.61 631.01 767.09
  A 2.04 2.04 0.0 0 0 631.95 769.07
  Q 649.00 779.86 667.47 771.45
  C 677.91 766.71 683.20 754.98 673.17 746.39
  Q 669.73 743.44 665.68 740.31
  Q 650.14 728.28 638.25 713.32
  C 632.99 706.69 628.47 698.87 628.73 690.27
  Q 628.75 689.65 629.37 689.69
  C 635.24 690.00 651.68 690.03 653.51 682.26
  Q 655.01 675.92 657.96 671.04"
/>
<path stroke="#d79c89" vector-effect="non-scaling-stroke" d="
  M 657.96 671.04
  Q 663.43 664.13 671.32 658.44
  A 1.95 1.95 0.0 0 0 671.96 656.05
  Q 670.47 652.78 669.22 649.00
  C 665.00 636.17 672.26 623.22 682.38 614.76
  Q 688.16 609.93 694.43 605.95
  C 698.42 603.42 702.22 600.03 705.20 596.31
  C 712.25 587.49 717.82 576.86 722.90 566.55
  C 725.83 560.61 729.67 555.30 733.58 549.64"
/>
<path stroke="#787f84" vector-effect="non-scaling-stroke" d="
  M 733.58 549.64
  Q 736.28 547.39 738.44 543.44
  Q 744.88 531.68 737.14 520.41
  Q 735.35 517.80 733.11 515.22
  C 729.61 511.20 729.51 505.21 733.69 501.77
  C 739.90 496.65 747.81 499.06 753.59 503.79
  C 763.61 511.98 768.52 522.99 770.23 535.49
  C 770.59 538.14 771.30 540.91 772.73 543.19
  Q 776.79 549.68 783.49 556.57
  Q 784.39 557.49 785.48 556.80
  Q 805.41 544.22 819.76 524.50
  C 843.81 491.47 851.86 452.87 842.97 412.47
  C 837.21 386.27 822.34 362.15 802.77 343.75
  C 773.19 315.92 732.80 303.61 693.16 312.36
  Q 674.17 316.56 658.09 325.92
  A 0.53 0.52 76.6 0 1 657.30 325.43
  Q 657.41 323.61 657.91 321.71
  Q 663.44 300.48 650.88 282.85
  C 648.53 279.56 642.98 275.95 639.20 278.88
  C 637.07 280.53 636.74 283.32 637.44 285.84
  C 641.55 300.63 641.21 317.03 631.78 329.58
  A 1.59 1.58 20.1 0 1 630.42 330.21
  Q 615.28 329.45 602.69 336.97
  Q 583.77 348.26 581.08 369.98
  C 580.63 373.61 580.44 387.77 584.61 389.58
  Q 600.15 396.31 607.56 408.52
  C 612.30 416.32 613.81 424.59 608.39 431.93"
/>
<path stroke="#d79c89" vector-effect="non-scaling-stroke" d="
  M 608.39 431.93
  Q 601.97 436.07 594.47 433.75
  Q 591.55 432.85 589.92 430.82
  Q 587.31 427.58 585.45 422.77"
/>
<path stroke="#787f84" vector-effect="non-scaling-stroke" d="
  M 585.45 422.77
  Q 581.67 417.06 577.16 413.58
  C 571.71 409.38 563.48 405.27 560.32 398.66
  C 551.94 381.14 553.79 358.13 563.54 341.18
  C 574.63 321.92 593.27 309.21 615.63 307.46
  Q 616.18 307.42 616.30 306.88
  Q 617.38 302.30 617.49 296.96
  Q 618.28 258.40 596.98 225.00
  C 564.95 174.76 506.84 149.49 448.39 162.79
  Q 406.21 172.38 377.29 204.71
  Q 365.56 217.83 357.30 235.34
  Q 357.07 235.82 356.56 235.92
  Q 322.45 243.13 301.31 268.82
  Q 280.10 294.59 278.99 330.00
  Q 278.85 334.40 279.03 339.54
  A 0.66 0.65 0.8 0 1 278.33 340.21
  Q 244.71 337.56 216.14 356.09
  Q 208.66 360.95 201.09 368.30
  Q 181.39 387.46 172.94 414.54
  Q 168.01 430.34 168.17 449.08
  Q 168.52 488.92 191.89 522.96
  Q 206.48 544.21 227.85 559.07
  Q 228.63 559.60 229.18 558.84
  C 234.62 551.35 243.85 545.77 243.28 535.68
  Q 242.91 529.21 242.93 522.63
  Q 243.01 502.73 256.74 488.41
  C 262.74 482.16 272.07 475.99 280.51 480.38
  Q 284.07 482.24 285.30 485.59
  C 288.21 493.49 282.78 496.86 278.19 501.74
  Q 270.18 510.25 270.90 523.19
  C 271.33 530.89 272.98 539.85 277.78 545.87
  Q 283.10 552.54 288.44 559.71
  C 292.93 565.73 296.35 572.59 300.04 579.39"
/>
<path stroke="#5f2b1b" vector-effect="non-scaling-stroke" d="
  M 585.45 422.77
  Q 584.75 423.12 584.03 422.69
  Q 583.58 422.42 583.30 422.86
  Q 583.07 423.24 583.20 423.68
  C 592.06 455.19 576.46 481.89 546.00 491.98
  Q 530.81 497.01 514.89 497.19"
/>
<path stroke="#5f2b1b" vector-effect="non-scaling-stroke" d="
  M 511.70 489.55
  C 534.53 448.75 534.87 398.31 512.62 357.35
  C 499.00 332.27 476.67 310.23 449.61 299.97
  Q 444.38 297.99 438.94 297.29
  C 434.45 296.72 428.67 298.96 431.14 304.73
  C 433.83 311.04 436.99 316.98 438.89 323.61
  Q 448.17 355.92 437.56 387.79
  Q 425.59 423.76 395.94 450.19
  Q 392.14 453.57 387.39 456.83
  A 0.56 0.55 50.9 0 1 386.67 456.75
  Q 386.34 456.40 386.23 455.94
  Q 379.07 426.16 354.97 408.78
  Q 351.42 406.22 347.71 405.36
  C 344.52 404.61 341.49 407.69 342.59 411.00
  C 344.77 417.58 347.42 424.07 348.72 431.00
  Q 352.43 450.65 348.06 470.10
  Q 342.86 493.27 329.99 515.17
  Q 318.33 535.01 311.87 547.67
  Q 304.88 561.40 300.04 579.39"
/>
<path stroke="#5f2b1b" vector-effect="non-scaling-stroke" d="
  M 733.58 549.64
  Q 718.90 551.56 706.89 559.36
  C 700.11 563.77 693.59 568.69 686.70 572.02
  A 0.70 0.69 -14.7 0 1 685.70 571.44
  Q 685.65 570.71 685.94 570.04
  C 692.76 554.40 696.22 539.06 694.47 521.93
  Q 691.76 495.44 672.69 476.03
  C 669.82 473.10 664.13 468.32 660.37 472.49
  C 659.17 473.83 659.43 476.25 659.93 477.87
  C 666.91 500.39 662.24 524.22 647.42 542.91
  C 635.43 558.03 619.24 568.91 600.95 575.12
  Q 592.38 578.04 583.36 580.43"
/>
<path stroke="#5f2b1b" vector-effect="non-scaling-stroke" d="
  M 577.27 571.57
  Q 581.99 568.68 586.34 565.35
  C 602.56 552.96 615.60 536.10 622.39 516.69
  Q 631.86 489.57 623.55 461.08
  Q 620.93 452.13 614.80 441.97
  Q 610.97 435.63 608.39 431.93"
/>
<path stroke="#6f3b2d" vector-effect="non-scaling-stroke" d="
  M 657.96 671.04
  Q 649.22 663.31 643.57 656.17
  C 633.46 643.38 625.67 628.18 618.16 613.39
  C 614.74 606.66 608.25 608.58 605.55 614.57
  Q 600.44 625.90 595.49 634.48"
/>
<path stroke="#787f84" vector-effect="non-scaling-stroke" d="
  M 799.25 222.76
  A 12.61 12.61 0.0 0 0 786.64 210.15
  A 12.61 12.61 0.0 0 0 774.03 222.76
  A 12.61 12.61 0.0 0 0 786.64 235.37
  A 12.61 12.61 0.0 0 0 799.25 222.76"
/>
<path stroke="#787f84" vector-effect="non-scaling-stroke" d="
  M 721.7637 258.0668
  A 19.51 19.27 80.4 0 0 737.5101 235.6164
  A 19.51 19.27 80.4 0 0 715.2563 219.5932
  A 19.51 19.27 80.4 0 0 699.5099 242.0436
  A 19.51 19.27 80.4 0 0 721.7637 258.0668"
/>
<path stroke="#787f84" vector-effect="non-scaling-stroke" d="
  M 259.47 261.53
  A 17.26 17.26 0.0 0 0 242.21 244.27
  A 17.26 17.26 0.0 0 0 224.95 261.53
  A 17.26 17.26 0.0 0 0 242.21 278.79
  A 17.26 17.26 0.0 0 0 259.47 261.53"
/>
<path stroke="#787f84" vector-effect="non-scaling-stroke" d="
  M 662.90 247.56
  Q 658.48 245.70 655.06 245.45
  Q 646.71 244.82 646.11 253.01
  C 645.79 257.30 648.54 261.02 652.66 262.60
  Q 666.38 267.84 673.11 280.82
  Q 675.19 284.83 677.09 289.26
  C 679.86 295.69 686.78 295.25 690.38 290.20
  C 692.81 286.80 691.64 281.78 690.45 278.12
  Q 683.26 256.09 662.90 247.56"
/>
<path stroke="#787f84" vector-effect="non-scaling-stroke" d="
  M 763.7340 280.4544
  A 12.07 11.82 94.4 0 0 776.4452 269.3268
  A 12.07 11.82 94.4 0 0 765.5860 256.3856
  A 12.07 11.82 94.4 0 0 752.8748 267.5132
  A 12.07 11.82 94.4 0 0 763.7340 280.4544"
/>
<path stroke="#787f84" vector-effect="non-scaling-stroke" d="
  M 193.1527 306.7837
  A 12.56 12.25 100.4 0 0 207.4688 296.6414
  A 12.56 12.25 100.4 0 0 197.6873 282.0763
  A 12.56 12.25 100.4 0 0 183.3712 292.2186
  A 12.56 12.25 100.4 0 0 193.1527 306.7837"
/>
<path stroke="#787f84" vector-effect="non-scaling-stroke" d="
  M 457.24 771.96
  L 457.49 818.76
  A 0.50 0.49 -0.6 0 1 456.99 819.26
  L 274.70 819.27
  Q 274.33 819.27 274.33 818.91
  L 274.31 778.63
  A 0.30 0.30 0.0 0 1 274.79 778.39
  Q 296.28 794.61 323.64 793.99
  A 0.27 0.27 0.0 0 0 323.89 793.63
  Q 323.68 793.10 323.30 792.69
  Q 309.57 777.50 315.08 759.41
  Q 315.35 758.55 314.81 757.83
  C 311.67 753.65 309.04 749.24 307.83 744.14
  Q 307.70 743.57 308.28 743.61
  C 313.78 743.97 322.55 740.28 324.37 734.42
  Q 325.32 731.36 325.70 727.70
  Q 325.76 727.16 325.44 726.73
  Q 324.21 725.08 322.15 724.10
  Q 309.06 717.91 299.74 709.45
  Q 297.48 707.40 300.53 707.44
  Q 312.46 707.61 326.76 707.70
  C 331.41 707.73 337.23 707.52 340.21 703.47
  C 344.34 697.84 341.73 691.11 336.12 687.80
  Q 329.92 684.14 324.24 680.71
  Q 312.45 673.60 298.34 659.42
  Q 296.64 657.71 294.96 655.28
  A 0.32 0.31 -14.6 0 1 295.25 654.79
  Q 301.78 655.37 309.31 655.03
  Q 312.84 654.87 315.01 653.66
  C 322.11 649.69 320.84 640.40 315.28 635.76
  Q 310.78 632.00 306.20 628.32
  Q 284.92 611.19 271.85 586.18
  Q 268.92 580.57 266.18 575.04
  C 264.00 570.65 258.55 567.81 254.57 572.16
  Q 252.85 574.05 251.87 576.07
  Q 248.01 584.03 244.11 590.90
  Q 232.22 611.83 214.39 626.85
  Q 209.01 631.39 202.87 635.87
  C 196.38 640.60 196.67 649.36 203.24 653.88
  Q 205.41 655.38 209.54 655.35
  Q 215.99 655.32 222.37 655.04
  Q 224.83 654.93 223.18 656.75
  C 212.72 668.29 200.56 677.97 187.06 685.03
  C 180.57 688.42 174.30 692.74 177.41 701.23
  C 178.95 705.43 183.26 707.49 187.52 707.59
  Q 201.84 707.91 222.18 707.43
  Q 222.68 707.42 222.88 707.85
  A 0.63 0.62 54.9 0 1 222.76 708.56
  Q 208.28 723.64 189.90 727.89
  C 187.44 728.46 183.17 730.38 183.85 733.59
  C 185.77 742.59 197.10 747.01 205.26 748.23
  Q 209.23 748.82 213.20 749.19
  A 0.50 0.50 0.0 0 1 213.52 750.03
  C 206.73 757.25 195.79 762.67 186.53 765.67
  Q 179.05 768.11 172.87 770.22
  Q 167.40 772.08 167.01 777.79
  C 166.11 791.06 186.72 793.80 195.78 794.01
  Q 221.35 794.63 242.34 780.34
  A 0.35 0.35 0.0 0 1 242.89 780.63
  L 243.11 818.76
  A 0.56 0.55 -90.0 0 1 242.56 819.32
  Q 213.61 819.24 184.28 819.32
  C 176.48 819.34 170.39 819.55 164.07 825.09
  C 152.46 835.27 156.24 853.45 170.49 859.00
  Q 173.94 860.35 181.14 860.43
  Q 186.25 860.48 191.99 860.47
  Q 471.97 859.98 831.50 860.43
  C 840.25 860.44 846.59 860.37 852.88 855.36
  C 861.95 848.13 863.12 836.25 855.53 827.07
  Q 849.04 819.22 837.80 819.24
  Q 803.79 819.30 772.46 819.26
  A 0.72 0.72 0.0 0 1 771.74 818.54
  L 771.69 781.46
  Q 771.69 780.78 772.23 781.20
  Q 775.91 784.05 780.23 786.19
  Q 800.04 796.02 823.81 793.58
  C 831.86 792.76 845.21 789.88 846.94 780.31
  C 848.49 771.71 838.66 768.94 832.61 767.26
  C 820.94 764.02 810.19 758.06 800.87 750.07
  Q 799.79 749.14 801.21 749.09
  C 810.40 748.76 823.80 745.85 829.72 738.20
  C 834.79 731.64 828.81 728.53 823.52 727.24
  C 811.46 724.30 800.21 717.19 791.64 708.22
  A 0.44 0.44 0.0 0 1 791.96 707.47
  Q 807.29 707.64 823.54 707.71
  C 828.37 707.72 834.24 707.40 837.14 702.90
  C 840.89 697.08 837.88 690.18 832.14 687.17
  C 815.68 678.52 801.69 668.64 790.95 655.42
  A 0.37 0.37 0.0 0 1 791.28 654.82
  Q 799.17 655.53 807.56 654.98
  Q 812.81 654.63 815.37 650.25
  C 818.76 644.47 816.13 638.34 811.13 634.67
  C 793.95 622.03 779.91 607.49 769.66 588.90
  Q 766.15 582.54 762.67 575.27
  C 760.97 571.72 755.99 568.22 752.30 571.23
  Q 749.80 573.28 748.38 576.27
  Q 744.87 583.64 741.32 590.07
  Q 729.65 611.24 710.49 627.04
  Q 704.84 631.70 699.18 636.04
  C 692.94 640.82 693.42 649.57 700.03 653.89
  Q 702.41 655.45 707.73 655.33
  Q 713.57 655.20 718.90 655.13
  Q 719.63 655.13 719.23 655.74
  Q 717.79 657.97 715.84 659.95
  Q 702.39 673.57 686.16 683.28
  C 682.08 685.72 677.93 687.51 674.21 690.59
  Q 671.69 692.67 671.32 696.13
  C 670.39 704.82 676.32 707.70 684.03 707.73
  Q 698.78 707.80 713.73 707.48
  Q 714.12 707.47 714.33 707.81
  A 0.66 0.65 52.5 0 1 714.23 708.62
  Q 708.65 714.02 702.44 717.65
  Q 696.72 721.00 692.00 723.89
  A 0.91 0.91 0.0 0 0 691.83 725.31
  C 696.25 729.79 700.35 734.80 702.84 740.63
  C 711.21 760.21 704.85 779.70 688.24 792.53
  Q 686.34 793.99 688.74 794.07
  Q 716.34 794.99 739.74 778.28
  A 0.30 0.30 0.0 0 1 740.21 778.52
  L 740.52 818.74
  Q 740.53 819.25 740.01 819.25
  L 496.76 819.25
  Q 496.41 819.25 496.41 818.90
  L 496.23 772.22
  A 0.25 0.24 19.4 0 1 496.63 772.03
  Q 531.15 799.29 574.96 786.25
  C 584.34 783.47 597.01 776.99 601.10 767.45
  C 603.90 760.93 601.08 753.66 595.54 749.82
  C 589.10 745.35 582.28 741.33 576.10 736.49
  Q 549.49 715.62 530.78 686.02
  Q 530.38 685.40 531.12 685.40
  Q 548.00 685.43 567.08 685.72
  C 574.11 685.83 580.78 685.71 584.97 679.77
  C 590.17 672.43 585.99 663.76 579.67 659.00
  Q 562.55 646.10 544.39 627.21
  Q 534.34 616.75 527.59 607.44
  Q 527.21 606.91 527.85 606.96
  Q 533.45 607.39 539.20 607.37
  C 543.94 607.34 548.36 607.55 551.88 603.71
  C 557.80 597.27 554.14 588.84 548.25 584.17
  Q 537.11 575.33 527.28 565.67
  C 508.29 547.01 495.18 525.25 485.34 500.38
  C 481.62 490.95 471.99 489.15 467.45 499.29
  Q 465.56 503.53 463.67 508.03
  C 457.11 523.73 448.50 538.29 437.56 551.34
  Q 421.95 569.96 402.78 584.93
  Q 396.18 590.09 397.36 597.81
  C 398.14 602.98 402.24 607.09 407.60 607.44
  C 412.69 607.78 418.12 607.27 423.22 607.05
  Q 424.85 606.97 423.87 608.28
  C 409.23 627.70 390.98 645.04 371.53 659.98
  C 362.56 666.88 363.30 679.91 373.99 684.61
  C 375.89 685.45 378.19 685.56 380.25 685.57
  Q 399.07 685.61 420.84 685.37
  A 0.64 0.64 0.0 0 1 421.40 686.33
  Q 417.48 693.19 412.87 699.24
  Q 389.59 729.82 358.00 748.43
  Q 350.48 752.87 349.72 759.79
  C 347.86 776.89 372.44 786.07 385.40 788.56
  Q 425.55 796.27 456.71 771.70
  Q 457.23 771.29 457.24 771.96"
/>
<path stroke="#787f84" vector-effect="non-scaling-stroke" d="
  M 463.10 249.65
  A 14.88 14.88 0.0 0 0 448.22 234.77
  A 14.88 14.88 0.0 0 0 433.34 249.65
  A 14.88 14.88 0.0 0 0 448.22 264.53
  A 14.88 14.88 0.0 0 0 463.10 249.65"
/>
<path stroke="#787f84" vector-effect="non-scaling-stroke" d="
  M 504.0850 283.8917
  A 15.06 14.85 68.6 0 0 512.4162 264.4516
  A 15.06 14.85 68.6 0 0 493.0950 255.8483
  A 15.06 14.85 68.6 0 0 484.7638 275.2884
  A 15.06 14.85 68.6 0 0 504.0850 283.8917"
/>
<path stroke="#787f84" vector-effect="non-scaling-stroke" d="
  M 393.02 301.29
  A 14.98 14.98 0.0 0 0 378.04 286.31
  A 14.98 14.98 0.0 0 0 363.06 301.29
  A 14.98 14.98 0.0 0 0 378.04 316.27
  A 14.98 14.98 0.0 0 0 393.02 301.29"
/>
<path stroke="#787f84" vector-effect="non-scaling-stroke" d="
  M 362.2528 369.2711
  A 15.12 14.74 59.9 0 0 367.4223 348.7977
  A 15.12 14.74 59.9 0 0 347.0872 343.1089
  A 15.12 14.74 59.9 0 0 341.9177 363.5823
  A 15.12 14.74 59.9 0 0 362.2528 369.2711"
/>
<path stroke="#787f84" vector-effect="non-scaling-stroke" d="
  M 273.9926 401.4453
  A 15.11 14.84 64.3 0 0 280.8120 381.3945
  A 15.11 14.84 64.3 0 0 260.8874 374.2147
  A 15.11 14.84 64.3 0 0 254.0680 394.2655
  A 15.11 14.84 64.3 0 0 273.9926 401.4453"
/>
<path stroke="#787f84" vector-effect="non-scaling-stroke" d="
  M 248.54 426.44
  A 14.87 14.87 0.0 0 0 233.67 411.57
  A 14.87 14.87 0.0 0 0 218.80 426.44
  A 14.87 14.87 0.0 0 0 233.67 441.31
  A 14.87 14.87 0.0 0 0 248.54 426.44"
/>
<path stroke="#787f84" vector-effect="non-scaling-stroke" d="
  M 729.9305 382.3425
  A 14.99 14.62 59.4 0 0 734.8840 361.9978
  A 14.99 14.62 59.4 0 0 714.6695 356.5375
  A 14.99 14.62 59.4 0 0 709.7160 376.8822
  A 14.99 14.62 59.4 0 0 729.9305 382.3425"
/>
<path stroke="#787f84" vector-effect="non-scaling-stroke" d="
  M 770.39 409.05
  A 14.74 14.74 0.0 0 0 755.65 394.31
  A 14.74 14.74 0.0 0 0 740.91 409.05
  A 14.74 14.74 0.0 0 0 755.65 423.79
  A 14.74 14.74 0.0 0 0 770.39 409.05"
/>
<path stroke="#787f84" vector-effect="non-scaling-stroke" d="
  M 789.50 456.36
  A 14.66 14.66 0.0 0 0 774.84 441.70
  A 14.66 14.66 0.0 0 0 760.18 456.36
  A 14.66 14.66 0.0 0 0 774.84 471.02
  A 14.66 14.66 0.0 0 0 789.50 456.36"
/>
</g>
<path fill="#eff0f2" d="
  M 0.00 0.00
  L 1024.00 0.00
  L 1024.00 1024.00
  L 0.00 1024.00
  L 0.00 0.00
  Z
  M 300.04 579.39
  C 303.82 587.58 310.45 599.01 318.68 605.19
  Q 325.37 610.21 331.88 615.45
  Q 343.97 625.18 347.52 640.24
  Q 347.76 641.26 347.63 642.28
  Q 347.40 644.01 348.57 642.71
  C 354.79 635.75 362.27 630.17 369.68 624.18
  A 1.59 1.58 56.2 0 0 370.07 622.19
  Q 357.33 598.81 371.29 576.30
  C 376.52 567.86 384.69 561.46 392.52 555.55
  C 408.66 543.35 421.83 527.74 431.18 509.84
  Q 436.47 499.72 441.56 487.48
  C 447.95 472.09 459.29 461.70 476.78 461.72
  C 493.60 461.73 505.75 475.11 511.70 489.55
  L 514.89 497.19
  Q 515.66 499.67 516.88 502.35
  C 526.04 522.50 539.76 540.52 557.20 554.25
  Q 563.29 559.04 568.64 563.41
  C 571.70 565.91 574.42 568.79 577.27 571.57
  L 583.36 580.43
  Q 584.51 583.66 585.59 586.50
  C 590.08 598.33 588.58 610.98 582.33 622.20
  A 1.13 1.13 0.0 0 0 582.59 623.61
  L 595.49 634.48
  Q 598.39 637.23 602.54 641.20
  Q 616.20 654.28 618.07 672.87
  Q 619.72 689.29 613.83 702.93
  C 611.35 708.66 607.33 713.92 603.65 719.14
  Q 603.27 719.68 603.82 720.05
  Q 611.07 724.92 615.48 728.53
  Q 633.91 743.61 631.01 767.09
  A 2.04 2.04 0.0 0 0 631.95 769.07
  Q 649.00 779.86 667.47 771.45
  C 677.91 766.71 683.20 754.98 673.17 746.39
  Q 669.73 743.44 665.68 740.31
  Q 650.14 728.28 638.25 713.32
  C 632.99 706.69 628.47 698.87 628.73 690.27
  Q 628.75 689.65 629.37 689.69
  C 635.24 690.00 651.68 690.03 653.51 682.26
  Q 655.01 675.92 657.96 671.04
  Q 663.43 664.13 671.32 658.44
  A 1.95 1.95 0.0 0 0 671.96 656.05
  Q 670.47 652.78 669.22 649.00
  C 665.00 636.17 672.26 623.22 682.38 614.76
  Q 688.16 609.93 694.43 605.95
  C 698.42 603.42 702.22 600.03 705.20 596.31
  C 712.25 587.49 717.82 576.86 722.90 566.55
  C 725.83 560.61 729.67 555.30 733.58 549.64
  Q 736.28 547.39 738.44 543.44
  Q 744.88 531.68 737.14 520.41
  Q 735.35 517.80 733.11 515.22
  C 729.61 511.20 729.51 505.21 733.69 501.77
  C 739.90 496.65 747.81 499.06 753.59 503.79
  C 763.61 511.98 768.52 522.99 770.23 535.49
  C 770.59 538.14 771.30 540.91 772.73 543.19
  Q 776.79 549.68 783.49 556.57
  Q 784.39 557.49 785.48 556.80
  Q 805.41 544.22 819.76 524.50
  C 843.81 491.47 851.86 452.87 842.97 412.47
  C 837.21 386.27 822.34 362.15 802.77 343.75
  C 773.19 315.92 732.80 303.61 693.16 312.36
  Q 674.17 316.56 658.09 325.92
  A 0.53 0.52 76.6 0 1 657.30 325.43
  Q 657.41 323.61 657.91 321.71
  Q 663.44 300.48 650.88 282.85
  C 648.53 279.56 642.98 275.95 639.20 278.88
  C 637.07 280.53 636.74 283.32 637.44 285.84
  C 641.55 300.63 641.21 317.03 631.78 329.58
  A 1.59 1.58 20.1 0 1 630.42 330.21
  Q 615.28 329.45 602.69 336.97
  Q 583.77 348.26 581.08 369.98
  C 580.63 373.61 580.44 387.77 584.61 389.58
  Q 600.15 396.31 607.56 408.52
  C 612.30 416.32 613.81 424.59 608.39 431.93
  Q 601.97 436.07 594.47 433.75
  Q 591.55 432.85 589.92 430.82
  Q 587.31 427.58 585.45 422.77
  Q 581.67 417.06 577.16 413.58
  C 571.71 409.38 563.48 405.27 560.32 398.66
  C 551.94 381.14 553.79 358.13 563.54 341.18
  C 574.63 321.92 593.27 309.21 615.63 307.46
  Q 616.18 307.42 616.30 306.88
  Q 617.38 302.30 617.49 296.96
  Q 618.28 258.40 596.98 225.00
  C 564.95 174.76 506.84 149.49 448.39 162.79
  Q 406.21 172.38 377.29 204.71
  Q 365.56 217.83 357.30 235.34
  Q 357.07 235.82 356.56 235.92
  Q 322.45 243.13 301.31 268.82
  Q 280.10 294.59 278.99 330.00
  Q 278.85 334.40 279.03 339.54
  A 0.66 0.65 0.8 0 1 278.33 340.21
  Q 244.71 337.56 216.14 356.09
  Q 208.66 360.95 201.09 368.30
  Q 181.39 387.46 172.94 414.54
  Q 168.01 430.34 168.17 449.08
  Q 168.52 488.92 191.89 522.96
  Q 206.48 544.21 227.85 559.07
  Q 228.63 559.60 229.18 558.84
  C 234.62 551.35 243.85 545.77 243.28 535.68
  Q 242.91 529.21 242.93 522.63
  Q 243.01 502.73 256.74 488.41
  C 262.74 482.16 272.07 475.99 280.51 480.38
  Q 284.07 482.24 285.30 485.59
  C 288.21 493.49 282.78 496.86 278.19 501.74
  Q 270.18 510.25 270.90 523.19
  C 271.33 530.89 272.98 539.85 277.78 545.87
  Q 283.10 552.54 288.44 559.71
  C 292.93 565.73 296.35 572.59 300.04 579.39
  Z
  M 799.25 222.76
  A 12.61 12.61 0.0 0 0 786.64 210.15
  A 12.61 12.61 0.0 0 0 774.03 222.76
  A 12.61 12.61 0.0 0 0 786.64 235.37
  A 12.61 12.61 0.0 0 0 799.25 222.76
  Z
  M 721.7637 258.0668
  A 19.51 19.27 80.4 0 0 737.5101 235.6164
  A 19.51 19.27 80.4 0 0 715.2563 219.5932
  A 19.51 19.27 80.4 0 0 699.5099 242.0436
  A 19.51 19.27 80.4 0 0 721.7637 258.0668
  Z
  M 259.47 261.53
  A 17.26 17.26 0.0 0 0 242.21 244.27
  A 17.26 17.26 0.0 0 0 224.95 261.53
  A 17.26 17.26 0.0 0 0 242.21 278.79
  A 17.26 17.26 0.0 0 0 259.47 261.53
  Z
  M 662.90 247.56
  Q 658.48 245.70 655.06 245.45
  Q 646.71 244.82 646.11 253.01
  C 645.79 257.30 648.54 261.02 652.66 262.60
  Q 666.38 267.84 673.11 280.82
  Q 675.19 284.83 677.09 289.26
  C 679.86 295.69 686.78 295.25 690.38 290.20
  C 692.81 286.80 691.64 281.78 690.45 278.12
  Q 683.26 256.09 662.90 247.56
  Z
  M 763.7340 280.4544
  A 12.07 11.82 94.4 0 0 776.4452 269.3268
  A 12.07 11.82 94.4 0 0 765.5860 256.3856
  A 12.07 11.82 94.4 0 0 752.8748 267.5132
  A 12.07 11.82 94.4 0 0 763.7340 280.4544
  Z
  M 193.1527 306.7837
  A 12.56 12.25 100.4 0 0 207.4688 296.6414
  A 12.56 12.25 100.4 0 0 197.6873 282.0763
  A 12.56 12.25 100.4 0 0 183.3712 292.2186
  A 12.56 12.25 100.4 0 0 193.1527 306.7837
  Z
  M 457.24 771.96
  L 457.49 818.76
  A 0.50 0.49 -0.6 0 1 456.99 819.26
  L 274.70 819.27
  Q 274.33 819.27 274.33 818.91
  L 274.31 778.63
  A 0.30 0.30 0.0 0 1 274.79 778.39
  Q 296.28 794.61 323.64 793.99
  A 0.27 0.27 0.0 0 0 323.89 793.63
  Q 323.68 793.10 323.30 792.69
  Q 309.57 777.50 315.08 759.41
  Q 315.35 758.55 314.81 757.83
  C 311.67 753.65 309.04 749.24 307.83 744.14
  Q 307.70 743.57 308.28 743.61
  C 313.78 743.97 322.55 740.28 324.37 734.42
  Q 325.32 731.36 325.70 727.70
  Q 325.76 727.16 325.44 726.73
  Q 324.21 725.08 322.15 724.10
  Q 309.06 717.91 299.74 709.45
  Q 297.48 707.40 300.53 707.44
  Q 312.46 707.61 326.76 707.70
  C 331.41 707.73 337.23 707.52 340.21 703.47
  C 344.34 697.84 341.73 691.11 336.12 687.80
  Q 329.92 684.14 324.24 680.71
  Q 312.45 673.60 298.34 659.42
  Q 296.64 657.71 294.96 655.28
  A 0.32 0.31 -14.6 0 1 295.25 654.79
  Q 301.78 655.37 309.31 655.03
  Q 312.84 654.87 315.01 653.66
  C 322.11 649.69 320.84 640.40 315.28 635.76
  Q 310.78 632.00 306.20 628.32
  Q 284.92 611.19 271.85 586.18
  Q 268.92 580.57 266.18 575.04
  C 264.00 570.65 258.55 567.81 254.57 572.16
  Q 252.85 574.05 251.87 576.07
  Q 248.01 584.03 244.11 590.90
  Q 232.22 611.83 214.39 626.85
  Q 209.01 631.39 202.87 635.87
  C 196.38 640.60 196.67 649.36 203.24 653.88
  Q 205.41 655.38 209.54 655.35
  Q 215.99 655.32 222.37 655.04
  Q 224.83 654.93 223.18 656.75
  C 212.72 668.29 200.56 677.97 187.06 685.03
  C 180.57 688.42 174.30 692.74 177.41 701.23
  C 178.95 705.43 183.26 707.49 187.52 707.59
  Q 201.84 707.91 222.18 707.43
  Q 222.68 707.42 222.88 707.85
  A 0.63 0.62 54.9 0 1 222.76 708.56
  Q 208.28 723.64 189.90 727.89
  C 187.44 728.46 183.17 730.38 183.85 733.59
  C 185.77 742.59 197.10 747.01 205.26 748.23
  Q 209.23 748.82 213.20 749.19
  A 0.50 0.50 0.0 0 1 213.52 750.03
  C 206.73 757.25 195.79 762.67 186.53 765.67
  Q 179.05 768.11 172.87 770.22
  Q 167.40 772.08 167.01 777.79
  C 166.11 791.06 186.72 793.80 195.78 794.01
  Q 221.35 794.63 242.34 780.34
  A 0.35 0.35 0.0 0 1 242.89 780.63
  L 243.11 818.76
  A 0.56 0.55 -90.0 0 1 242.56 819.32
  Q 213.61 819.24 184.28 819.32
  C 176.48 819.34 170.39 819.55 164.07 825.09
  C 152.46 835.27 156.24 853.45 170.49 859.00
  Q 173.94 860.35 181.14 860.43
  Q 186.25 860.48 191.99 860.47
  Q 471.97 859.98 831.50 860.43
  C 840.25 860.44 846.59 860.37 852.88 855.36
  C 861.95 848.13 863.12 836.25 855.53 827.07
  Q 849.04 819.22 837.80 819.24
  Q 803.79 819.30 772.46 819.26
  A 0.72 0.72 0.0 0 1 771.74 818.54
  L 771.69 781.46
  Q 771.69 780.78 772.23 781.20
  Q 775.91 784.05 780.23 786.19
  Q 800.04 796.02 823.81 793.58
  C 831.86 792.76 845.21 789.88 846.94 780.31
  C 848.49 771.71 838.66 768.94 832.61 767.26
  C 820.94 764.02 810.19 758.06 800.87 750.07
  Q 799.79 749.14 801.21 749.09
  C 810.40 748.76 823.80 745.85 829.72 738.20
  C 834.79 731.64 828.81 728.53 823.52 727.24
  C 811.46 724.30 800.21 717.19 791.64 708.22
  A 0.44 0.44 0.0 0 1 791.96 707.47
  Q 807.29 707.64 823.54 707.71
  C 828.37 707.72 834.24 707.40 837.14 702.90
  C 840.89 697.08 837.88 690.18 832.14 687.17
  C 815.68 678.52 801.69 668.64 790.95 655.42
  A 0.37 0.37 0.0 0 1 791.28 654.82
  Q 799.17 655.53 807.56 654.98
  Q 812.81 654.63 815.37 650.25
  C 818.76 644.47 816.13 638.34 811.13 634.67
  C 793.95 622.03 779.91 607.49 769.66 588.90
  Q 766.15 582.54 762.67 575.27
  C 760.97 571.72 755.99 568.22 752.30 571.23
  Q 749.80 573.28 748.38 576.27
  Q 744.87 583.64 741.32 590.07
  Q 729.65 611.24 710.49 627.04
  Q 704.84 631.70 699.18 636.04
  C 692.94 640.82 693.42 649.57 700.03 653.89
  Q 702.41 655.45 707.73 655.33
  Q 713.57 655.20 718.90 655.13
  Q 719.63 655.13 719.23 655.74
  Q 717.79 657.97 715.84 659.95
  Q 702.39 673.57 686.16 683.28
  C 682.08 685.72 677.93 687.51 674.21 690.59
  Q 671.69 692.67 671.32 696.13
  C 670.39 704.82 676.32 707.70 684.03 707.73
  Q 698.78 707.80 713.73 707.48
  Q 714.12 707.47 714.33 707.81
  A 0.66 0.65 52.5 0 1 714.23 708.62
  Q 708.65 714.02 702.44 717.65
  Q 696.72 721.00 692.00 723.89
  A 0.91 0.91 0.0 0 0 691.83 725.31
  C 696.25 729.79 700.35 734.80 702.84 740.63
  C 711.21 760.21 704.85 779.70 688.24 792.53
  Q 686.34 793.99 688.74 794.07
  Q 716.34 794.99 739.74 778.28
  A 0.30 0.30 0.0 0 1 740.21 778.52
  L 740.52 818.74
  Q 740.53 819.25 740.01 819.25
  L 496.76 819.25
  Q 496.41 819.25 496.41 818.90
  L 496.23 772.22
  A 0.25 0.24 19.4 0 1 496.63 772.03
  Q 531.15 799.29 574.96 786.25
  C 584.34 783.47 597.01 776.99 601.10 767.45
  C 603.90 760.93 601.08 753.66 595.54 749.82
  C 589.10 745.35 582.28 741.33 576.10 736.49
  Q 549.49 715.62 530.78 686.02
  Q 530.38 685.40 531.12 685.40
  Q 548.00 685.43 567.08 685.72
  C 574.11 685.83 580.78 685.71 584.97 679.77
  C 590.17 672.43 585.99 663.76 579.67 659.00
  Q 562.55 646.10 544.39 627.21
  Q 534.34 616.75 527.59 607.44
  Q 527.21 606.91 527.85 606.96
  Q 533.45 607.39 539.20 607.37
  C 543.94 607.34 548.36 607.55 551.88 603.71
  C 557.80 597.27 554.14 588.84 548.25 584.17
  Q 537.11 575.33 527.28 565.67
  C 508.29 547.01 495.18 525.25 485.34 500.38
  C 481.62 490.95 471.99 489.15 467.45 499.29
  Q 465.56 503.53 463.67 508.03
  C 457.11 523.73 448.50 538.29 437.56 551.34
  Q 421.95 569.96 402.78 584.93
  Q 396.18 590.09 397.36 597.81
  C 398.14 602.98 402.24 607.09 407.60 607.44
  C 412.69 607.78 418.12 607.27 423.22 607.05
  Q 424.85 606.97 423.87 608.28
  C 409.23 627.70 390.98 645.04 371.53 659.98
  C 362.56 666.88 363.30 679.91 373.99 684.61
  C 375.89 685.45 378.19 685.56 380.25 685.57
  Q 399.07 685.61 420.84 685.37
  A 0.64 0.64 0.0 0 1 421.40 686.33
  Q 417.48 693.19 412.87 699.24
  Q 389.59 729.82 358.00 748.43
  Q 350.48 752.87 349.72 759.79
  C 347.86 776.89 372.44 786.07 385.40 788.56
  Q 425.55 796.27 456.71 771.70
  Q 457.23 771.29 457.24 771.96
  Z"
/>
<path fill="#000d16" d="
  M 585.45 422.77
  Q 584.75 423.12 584.03 422.69
  Q 583.58 422.42 583.30 422.86
  Q 583.07 423.24 583.20 423.68
  C 592.06 455.19 576.46 481.89 546.00 491.98
  Q 530.81 497.01 514.89 497.19
  L 511.70 489.55
  C 534.53 448.75 534.87 398.31 512.62 357.35
  C 499.00 332.27 476.67 310.23 449.61 299.97
  Q 444.38 297.99 438.94 297.29
  C 434.45 296.72 428.67 298.96 431.14 304.73
  C 433.83 311.04 436.99 316.98 438.89 323.61
  Q 448.17 355.92 437.56 387.79
  Q 425.59 423.76 395.94 450.19
  Q 392.14 453.57 387.39 456.83
  A 0.56 0.55 50.9 0 1 386.67 456.75
  Q 386.34 456.40 386.23 455.94
  Q 379.07 426.16 354.97 408.78
  Q 351.42 406.22 347.71 405.36
  C 344.52 404.61 341.49 407.69 342.59 411.00
  C 344.77 417.58 347.42 424.07 348.72 431.00
  Q 352.43 450.65 348.06 470.10
  Q 342.86 493.27 329.99 515.17
  Q 318.33 535.01 311.87 547.67
  Q 304.88 561.40 300.04 579.39
  C 296.35 572.59 292.93 565.73 288.44 559.71
  Q 283.10 552.54 277.78 545.87
  C 272.98 539.85 271.33 530.89 270.90 523.19
  Q 270.18 510.25 278.19 501.74
  C 282.78 496.86 288.21 493.49 285.30 485.59
  Q 284.07 482.24 280.51 480.38
  C 272.07 475.99 262.74 482.16 256.74 488.41
  Q 243.01 502.73 242.93 522.63
  Q 242.91 529.21 243.28 535.68
  C 243.85 545.77 234.62 551.35 229.18 558.84
  Q 228.63 559.60 227.85 559.07
  Q 206.48 544.21 191.89 522.96
  Q 168.52 488.92 168.17 449.08
  Q 168.01 430.34 172.94 414.54
  Q 181.39 387.46 201.09 368.30
  Q 208.66 360.95 216.14 356.09
  Q 244.71 337.56 278.33 340.21
  A 0.66 0.65 0.8 0 0 279.03 339.54
  Q 278.85 334.40 278.99 330.00
  Q 280.10 294.59 301.31 268.82
  Q 322.45 243.13 356.56 235.92
  Q 357.07 235.82 357.30 235.34
  Q 365.56 217.83 377.29 204.71
  Q 406.21 172.38 448.39 162.79
  C 506.84 149.49 564.95 174.76 596.98 225.00
  Q 618.28 258.40 617.49 296.96
  Q 617.38 302.30 616.30 306.88
  Q 616.18 307.42 615.63 307.46
  C 593.27 309.21 574.63 321.92 563.54 341.18
  C 553.79 358.13 551.94 381.14 560.32 398.66
  C 563.48 405.27 571.71 409.38 577.16 413.58
  Q 581.67 417.06 585.45 422.77
  Z
  M 463.10 249.65
  A 14.88 14.88 0.0 0 0 448.22 234.77
  A 14.88 14.88 0.0 0 0 433.34 249.65
  A 14.88 14.88 0.0 0 0 448.22 264.53
  A 14.88 14.88 0.0 0 0 463.10 249.65
  Z
  M 504.0850 283.8917
  A 15.06 14.85 68.6 0 0 512.4162 264.4516
  A 15.06 14.85 68.6 0 0 493.0950 255.8483
  A 15.06 14.85 68.6 0 0 484.7638 275.2884
  A 15.06 14.85 68.6 0 0 504.0850 283.8917
  Z
  M 393.02 301.29
  A 14.98 14.98 0.0 0 0 378.04 286.31
  A 14.98 14.98 0.0 0 0 363.06 301.29
  A 14.98 14.98 0.0 0 0 378.04 316.27
  A 14.98 14.98 0.0 0 0 393.02 301.29
  Z
  M 362.2528 369.2711
  A 15.12 14.74 59.9 0 0 367.4223 348.7977
  A 15.12 14.74 59.9 0 0 347.0872 343.1089
  A 15.12 14.74 59.9 0 0 341.9177 363.5823
  A 15.12 14.74 59.9 0 0 362.2528 369.2711
  Z
  M 273.9926 401.4453
  A 15.11 14.84 64.3 0 0 280.8120 381.3945
  A 15.11 14.84 64.3 0 0 260.8874 374.2147
  A 15.11 14.84 64.3 0 0 254.0680 394.2655
  A 15.11 14.84 64.3 0 0 273.9926 401.4453
  Z
  M 248.54 426.44
  A 14.87 14.87 0.0 0 0 233.67 411.57
  A 14.87 14.87 0.0 0 0 218.80 426.44
  A 14.87 14.87 0.0 0 0 233.67 441.31
  A 14.87 14.87 0.0 0 0 248.54 426.44
  Z"
/>
<circle fill="#000d16" cx="786.64" cy="222.76" r="12.61"/>
<ellipse fill="#000d16" cx="0.00" cy="0.00" transform="translate(718.51,238.83) rotate(80.4)" rx="19.51" ry="19.27"/>
<circle fill="#eff0f2" cx="448.22" cy="249.65" r="14.88"/>
<circle fill="#000d16" cx="242.21" cy="261.53" r="17.26"/>
<path fill="#000d16" d="
  M 662.90 247.56
  Q 683.26 256.09 690.45 278.12
  C 691.64 281.78 692.81 286.80 690.38 290.20
  C 686.78 295.25 679.86 295.69 677.09 289.26
  Q 675.19 284.83 673.11 280.82
  Q 666.38 267.84 652.66 262.60
  C 648.54 261.02 645.79 257.30 646.11 253.01
  Q 646.71 244.82 655.06 245.45
  Q 658.48 245.70 662.90 247.56
  Z"
/>
<ellipse fill="#eff0f2" cx="0.00" cy="0.00" transform="translate(498.59,269.87) rotate(68.6)" rx="15.06" ry="14.85"/>
<ellipse fill="#000d16" cx="0.00" cy="0.00" transform="translate(764.66,268.42) rotate(94.4)" rx="12.07" ry="11.82"/>
<path fill="#000d16" d="
  M 733.58 549.64
  Q 718.90 551.56 706.89 559.36
  C 700.11 563.77 693.59 568.69 686.70 572.02
  A 0.70 0.69 -14.7 0 1 685.70 571.44
  Q 685.65 570.71 685.94 570.04
  C 692.76 554.40 696.22 539.06 694.47 521.93
  Q 691.76 495.44 672.69 476.03
  C 669.82 473.10 664.13 468.32 660.37 472.49
  C 659.17 473.83 659.43 476.25 659.93 477.87
  C 666.91 500.39 662.24 524.22 647.42 542.91
  C 635.43 558.03 619.24 568.91 600.95 575.12
  Q 592.38 578.04 583.36 580.43
  L 577.27 571.57
  Q 581.99 568.68 586.34 565.35
  C 602.56 552.96 615.60 536.10 622.39 516.69
  Q 631.86 489.57 623.55 461.08
  Q 620.93 452.13 614.80 441.97
  Q 610.97 435.63 608.39 431.93
  C 613.81 424.59 612.30 416.32 607.56 408.52
  Q 600.15 396.31 584.61 389.58
  C 580.44 387.77 580.63 373.61 581.08 369.98
  Q 583.77 348.26 602.69 336.97
  Q 615.28 329.45 630.42 330.21
  A 1.59 1.58 20.1 0 0 631.78 329.58
  C 641.21 317.03 641.55 300.63 637.44 285.84
  C 636.74 283.32 637.07 280.53 639.20 278.88
  C 642.98 275.95 648.53 279.56 650.88 282.85
  Q 663.44 300.48 657.91 321.71
  Q 657.41 323.61 657.30 325.43
  A 0.53 0.52 76.6 0 0 658.09 325.92
  Q 674.17 316.56 693.16 312.36
  C 732.80 303.61 773.19 315.92 802.77 343.75
  C 822.34 362.15 837.21 386.27 842.97 412.47
  C 851.86 452.87 843.81 491.47 819.76 524.50
  Q 805.41 544.22 785.48 556.80
  Q 784.39 557.49 783.49 556.57
  Q 776.79 549.68 772.73 543.19
  C 771.30 540.91 770.59 538.14 770.23 535.49
  C 768.52 522.99 763.61 511.98 753.59 503.79
  C 747.81 499.06 739.90 496.65 733.69 501.77
  C 729.51 505.21 729.61 511.20 733.11 515.22
  Q 735.35 517.80 737.14 520.41
  Q 744.88 531.68 738.44 543.44
  Q 736.28 547.39 733.58 549.64
  Z
  M 729.9305 382.3425
  A 14.99 14.62 59.4 0 0 734.8840 361.9978
  A 14.99 14.62 59.4 0 0 714.6695 356.5375
  A 14.99 14.62 59.4 0 0 709.7160 376.8822
  A 14.99 14.62 59.4 0 0 729.9305 382.3425
  Z
  M 770.39 409.05
  A 14.74 14.74 0.0 0 0 755.65 394.31
  A 14.74 14.74 0.0 0 0 740.91 409.05
  A 14.74 14.74 0.0 0 0 755.65 423.79
  A 14.74 14.74 0.0 0 0 770.39 409.05
  Z
  M 789.50 456.36
  A 14.66 14.66 0.0 0 0 774.84 441.70
  A 14.66 14.66 0.0 0 0 760.18 456.36
  A 14.66 14.66 0.0 0 0 774.84 471.02
  A 14.66 14.66 0.0 0 0 789.50 456.36
  Z"
/>
<ellipse fill="#000d16" cx="0.00" cy="0.00" transform="translate(195.42,294.43) rotate(100.4)" rx="12.56" ry="12.25"/>
<circle fill="#eff0f2" cx="378.04" cy="301.29" r="14.98"/>
<path fill="#be4820" d="
  M 511.70 489.55
  C 505.75 475.11 493.60 461.73 476.78 461.72
  C 459.29 461.70 447.95 472.09 441.56 487.48
  Q 436.47 499.72 431.18 509.84
  C 421.83 527.74 408.66 543.35 392.52 555.55
  C 384.69 561.46 376.52 567.86 371.29 576.30
  Q 357.33 598.81 370.07 622.19
  A 1.59 1.58 56.2 0 1 369.68 624.18
  C 362.27 630.17 354.79 635.75 348.57 642.71
  Q 347.40 644.01 347.63 642.28
  Q 347.76 641.26 347.52 640.24
  Q 343.97 625.18 331.88 615.45
  Q 325.37 610.21 318.68 605.19
  C 310.45 599.01 303.82 587.58 300.04 579.39
  Q 304.88 561.40 311.87 547.67
  Q 318.33 535.01 329.99 515.17
  Q 342.86 493.27 348.06 470.10
  Q 352.43 450.65 348.72 431.00
  C 347.42 424.07 344.77 417.58 342.59 411.00
  C 341.49 407.69 344.52 404.61 347.71 405.36
  Q 351.42 406.22 354.97 408.78
  Q 379.07 426.16 386.23 455.94
  Q 386.34 456.40 386.67 456.75
  A 0.56 0.55 50.9 0 0 387.39 456.83
  Q 392.14 453.57 395.94 450.19
  Q 425.59 423.76 437.56 387.79
  Q 448.17 355.92 438.89 323.61
  C 436.99 316.98 433.83 311.04 431.14 304.73
  C 428.67 298.96 434.45 296.72 438.94 297.29
  Q 444.38 297.99 449.61 299.97
  C 476.67 310.23 499.00 332.27 512.62 357.35
  C 534.87 398.31 534.53 448.75 511.70 489.55
  Z"
/>
<ellipse fill="#eff0f2" cx="0.00" cy="0.00" transform="translate(354.67,356.19) rotate(59.9)" rx="15.12" ry="14.74"/>
<ellipse fill="#eff0f2" cx="0.00" cy="0.00" transform="translate(722.30,369.44) rotate(59.4)" rx="14.99" ry="14.62"/>
<ellipse fill="#eff0f2" cx="0.00" cy="0.00" transform="translate(267.44,387.83) rotate(64.3)" rx="15.11" ry="14.84"/>
<circle fill="#eff0f2" cx="755.65" cy="409.05" r="14.74"/>
<circle fill="#eff0f2" cx="233.67" cy="426.44" r="14.87"/>
<path fill="#be4820" d="
  M 585.45 422.77
  Q 587.31 427.58 589.92 430.82
  Q 591.55 432.85 594.47 433.75
  Q 601.97 436.07 608.39 431.93
  Q 610.97 435.63 614.80 441.97
  Q 620.93 452.13 623.55 461.08
  Q 631.86 489.57 622.39 516.69
  C 615.60 536.10 602.56 552.96 586.34 565.35
  Q 581.99 568.68 577.27 571.57
  C 574.42 568.79 571.70 565.91 568.64 563.41
  Q 563.29 559.04 557.20 554.25
  C 539.76 540.52 526.04 522.50 516.88 502.35
  Q 515.66 499.67 514.89 497.19
  Q 530.81 497.01 546.00 491.98
  C 576.46 481.89 592.06 455.19 583.20 423.68
  Q 583.07 423.24 583.30 422.86
  Q 583.58 422.42 584.03 422.69
  Q 584.75 423.12 585.45 422.77
  Z"
/>
<circle fill="#eff0f2" cx="774.84" cy="456.36" r="14.66"/>
<path fill="#be4820" d="
  M 733.58 549.64
  C 729.67 555.30 725.83 560.61 722.90 566.55
  C 717.82 576.86 712.25 587.49 705.20 596.31
  C 702.22 600.03 698.42 603.42 694.43 605.95
  Q 688.16 609.93 682.38 614.76
  C 672.26 623.22 665.00 636.17 669.22 649.00
  Q 670.47 652.78 671.96 656.05
  A 1.95 1.95 0.0 0 1 671.32 658.44
  Q 663.43 664.13 657.96 671.04
  Q 649.22 663.31 643.57 656.17
  C 633.46 643.38 625.67 628.18 618.16 613.39
  C 614.74 606.66 608.25 608.58 605.55 614.57
  Q 600.44 625.90 595.49 634.48
  L 582.59 623.61
  A 1.13 1.13 0.0 0 1 582.33 622.20
  C 588.58 610.98 590.08 598.33 585.59 586.50
  Q 584.51 583.66 583.36 580.43
  Q 592.38 578.04 600.95 575.12
  C 619.24 568.91 635.43 558.03 647.42 542.91
  C 662.24 524.22 666.91 500.39 659.93 477.87
  C 659.43 476.25 659.17 473.83 660.37 472.49
  C 664.13 468.32 669.82 473.10 672.69 476.03
  Q 691.76 495.44 694.47 521.93
  C 696.22 539.06 692.76 554.40 685.94 570.04
  Q 685.65 570.71 685.70 571.44
  A 0.70 0.69 -14.7 0 0 686.70 572.02
  C 693.59 568.69 700.11 563.77 706.89 559.36
  Q 718.90 551.56 733.58 549.64
  Z"
/>
<path fill="#000d16" d="
  M 456.71 771.70
  Q 425.55 796.27 385.40 788.56
  C 372.44 786.07 347.86 776.89 349.72 759.79
  Q 350.48 752.87 358.00 748.43
  Q 389.59 729.82 412.87 699.24
  Q 417.48 693.19 421.40 686.33
  A 0.64 0.64 0.0 0 0 420.84 685.37
  Q 399.07 685.61 380.25 685.57
  C 378.19 685.56 375.89 685.45 373.99 684.61
  C 363.30 679.91 362.56 666.88 371.53 659.98
  C 390.98 645.04 409.23 627.70 423.87 608.28
  Q 424.85 606.97 423.22 607.05
  C 418.12 607.27 412.69 607.78 407.60 607.44
  C 402.24 607.09 398.14 602.98 397.36 597.81
  Q 396.18 590.09 402.78 584.93
  Q 421.95 569.96 437.56 551.34
  C 448.50 538.29 457.11 523.73 463.67 508.03
  Q 465.56 503.53 467.45 499.29
  C 471.99 489.15 481.62 490.95 485.34 500.38
  C 495.18 525.25 508.29 547.01 527.28 565.67
  Q 537.11 575.33 548.25 584.17
  C 554.14 588.84 557.80 597.27 551.88 603.71
  C 548.36 607.55 543.94 607.34 539.20 607.37
  Q 533.45 607.39 527.85 606.96
  Q 527.21 606.91 527.59 607.44
  Q 534.34 616.75 544.39 627.21
  Q 562.55 646.10 579.67 659.00
  C 585.99 663.76 590.17 672.43 584.97 679.77
  C 580.78 685.71 574.11 685.83 567.08 685.72
  Q 548.00 685.43 531.12 685.40
  Q 530.38 685.40 530.78 686.02
  Q 549.49 715.62 576.10 736.49
  C 582.28 741.33 589.10 745.35 595.54 749.82
  C 601.08 753.66 603.90 760.93 601.10 767.45
  C 597.01 776.99 584.34 783.47 574.96 786.25
  Q 531.15 799.29 496.63 772.03
  A 0.25 0.24 19.4 0 0 496.23 772.22
  L 496.41 818.90
  Q 496.41 819.25 496.76 819.25
  L 740.01 819.25
  Q 740.53 819.25 740.52 818.74
  L 740.21 778.52
  A 0.30 0.30 0.0 0 0 739.74 778.28
  Q 716.34 794.99 688.74 794.07
  Q 686.34 793.99 688.24 792.53
  C 704.85 779.70 711.21 760.21 702.84 740.63
  C 700.35 734.80 696.25 729.79 691.83 725.31
  A 0.91 0.91 0.0 0 1 692.00 723.89
  Q 696.72 721.00 702.44 717.65
  Q 708.65 714.02 714.23 708.62
  A 0.66 0.65 52.5 0 0 714.33 707.81
  Q 714.12 707.47 713.73 707.48
  Q 698.78 707.80 684.03 707.73
  C 676.32 707.70 670.39 704.82 671.32 696.13
  Q 671.69 692.67 674.21 690.59
  C 677.93 687.51 682.08 685.72 686.16 683.28
  Q 702.39 673.57 715.84 659.95
  Q 717.79 657.97 719.23 655.74
  Q 719.63 655.13 718.90 655.13
  Q 713.57 655.20 707.73 655.33
  Q 702.41 655.45 700.03 653.89
  C 693.42 649.57 692.94 640.82 699.18 636.04
  Q 704.84 631.70 710.49 627.04
  Q 729.65 611.24 741.32 590.07
  Q 744.87 583.64 748.38 576.27
  Q 749.80 573.28 752.30 571.23
  C 755.99 568.22 760.97 571.72 762.67 575.27
  Q 766.15 582.54 769.66 588.90
  C 779.91 607.49 793.95 622.03 811.13 634.67
  C 816.13 638.34 818.76 644.47 815.37 650.25
  Q 812.81 654.63 807.56 654.98
  Q 799.17 655.53 791.28 654.82
  A 0.37 0.37 0.0 0 0 790.95 655.42
  C 801.69 668.64 815.68 678.52 832.14 687.17
  C 837.88 690.18 840.89 697.08 837.14 702.90
  C 834.24 707.40 828.37 707.72 823.54 707.71
  Q 807.29 707.64 791.96 707.47
  A 0.44 0.44 0.0 0 0 791.64 708.22
  C 800.21 717.19 811.46 724.30 823.52 727.24
  C 828.81 728.53 834.79 731.64 829.72 738.20
  C 823.80 745.85 810.40 748.76 801.21 749.09
  Q 799.79 749.14 800.87 750.07
  C 810.19 758.06 820.94 764.02 832.61 767.26
  C 838.66 768.94 848.49 771.71 846.94 780.31
  C 845.21 789.88 831.86 792.76 823.81 793.58
  Q 800.04 796.02 780.23 786.19
  Q 775.91 784.05 772.23 781.20
  Q 771.69 780.78 771.69 781.46
  L 771.74 818.54
  A 0.72 0.72 0.0 0 0 772.46 819.26
  Q 803.79 819.30 837.80 819.24
  Q 849.04 819.22 855.53 827.07
  C 863.12 836.25 861.95 848.13 852.88 855.36
  C 846.59 860.37 840.25 860.44 831.50 860.43
  Q 471.97 859.98 191.99 860.47
  Q 186.25 860.48 181.14 860.43
  Q 173.94 860.35 170.49 859.00
  C 156.24 853.45 152.46 835.27 164.07 825.09
  C 170.39 819.55 176.48 819.34 184.28 819.32
  Q 213.61 819.24 242.56 819.32
  A 0.56 0.55 90.0 0 0 243.11 818.76
  L 242.89 780.63
  A 0.35 0.35 0.0 0 0 242.34 780.34
  Q 221.35 794.63 195.78 794.01
  C 186.72 793.80 166.11 791.06 167.01 777.79
  Q 167.40 772.08 172.87 770.22
  Q 179.05 768.11 186.53 765.67
  C 195.79 762.67 206.73 757.25 213.52 750.03
  A 0.50 0.50 0.0 0 0 213.20 749.19
  Q 209.23 748.82 205.26 748.23
  C 197.10 747.01 185.77 742.59 183.85 733.59
  C 183.17 730.38 187.44 728.46 189.90 727.89
  Q 208.28 723.64 222.76 708.56
  A 0.63 0.62 54.9 0 0 222.88 707.85
  Q 222.68 707.42 222.18 707.43
  Q 201.84 707.91 187.52 707.59
  C 183.26 707.49 178.95 705.43 177.41 701.23
  C 174.30 692.74 180.57 688.42 187.06 685.03
  C 200.56 677.97 212.72 668.29 223.18 656.75
  Q 224.83 654.93 222.37 655.04
  Q 215.99 655.32 209.54 655.35
  Q 205.41 655.38 203.24 653.88
  C 196.67 649.36 196.38 640.60 202.87 635.87
  Q 209.01 631.39 214.39 626.85
  Q 232.22 611.83 244.11 590.90
  Q 248.01 584.03 251.87 576.07
  Q 252.85 574.05 254.57 572.16
  C 258.55 567.81 264.00 570.65 266.18 575.04
  Q 268.92 580.57 271.85 586.18
  Q 284.92 611.19 306.20 628.32
  Q 310.78 632.00 315.28 635.76
  C 320.84 640.40 322.11 649.69 315.01 653.66
  Q 312.84 654.87 309.31 655.03
  Q 301.78 655.37 295.25 654.79
  A 0.32 0.31 -14.6 0 0 294.96 655.28
  Q 296.64 657.71 298.34 659.42
  Q 312.45 673.60 324.24 680.71
  Q 329.92 684.14 336.12 687.80
  C 341.73 691.11 344.34 697.84 340.21 703.47
  C 337.23 707.52 331.41 707.73 326.76 707.70
  Q 312.46 707.61 300.53 707.44
  Q 297.48 707.40 299.74 709.45
  Q 309.06 717.91 322.15 724.10
  Q 324.21 725.08 325.44 726.73
  Q 325.76 727.16 325.70 727.70
  Q 325.32 731.36 324.37 734.42
  C 322.55 740.28 313.78 743.97 308.28 743.61
  Q 307.70 743.57 307.83 744.14
  C 309.04 749.24 311.67 753.65 314.81 757.83
  Q 315.35 758.55 315.08 759.41
  Q 309.57 777.50 323.30 792.69
  Q 323.68 793.10 323.89 793.63
  A 0.27 0.27 0.0 0 1 323.64 793.99
  Q 296.28 794.61 274.79 778.39
  A 0.30 0.30 0.0 0 0 274.31 778.63
  L 274.33 818.91
  Q 274.33 819.27 274.70 819.27
  L 456.99 819.26
  A 0.50 0.49 -0.6 0 0 457.49 818.76
  L 457.24 771.96
  Q 457.23 771.29 456.71 771.70
  Z"
/>
<path fill="#1f2e39" d="
  M 657.96 671.04
  Q 655.01 675.92 653.51 682.26
  C 651.68 690.03 635.24 690.00 629.37 689.69
  Q 628.75 689.65 628.73 690.27
  C 628.47 698.87 632.99 706.69 638.25 713.32
  Q 650.14 728.28 665.68 740.31
  Q 669.73 743.44 673.17 746.39
  C 683.20 754.98 677.91 766.71 667.47 771.45
  Q 649.00 779.86 631.95 769.07
  A 2.04 2.04 0.0 0 1 631.01 767.09
  Q 633.91 743.61 615.48 728.53
  Q 611.07 724.92 603.82 720.05
  Q 603.27 719.68 603.65 719.14
  C 607.33 713.92 611.35 708.66 613.83 702.93
  Q 619.72 689.29 618.07 672.87
  Q 616.20 654.28 602.54 641.20
  Q 598.39 637.23 595.49 634.48
  Q 600.44 625.90 605.55 614.57
  C 608.25 608.58 614.74 606.66 618.16 613.39
  C 625.67 628.18 633.46 643.38 643.57 656.17
  Q 649.22 663.31 657.96 671.04
  Z"
/>
</svg>
